<svg width="691" height="140" viewBox="0 0 691 140" fill="none" xmlns="http://www.w3.org/2000/svg">
<path d="M672.246 0H17.754C12.367 0 8 4.25329 8 9.5V123.5C8 128.747 12.367 133 17.754 133H672.246C677.633 133 682 128.747 682 123.5V9.5C682 4.25329 677.633 0 672.246 0Z" fill="url(#paint0_linear)"/>
<path d="M384 49H244C241.791 49 240 50.7909 240 53V77C240 79.2091 241.791 81 244 81H384C386.209 81 388 79.2091 388 77V53C388 50.7909 386.209 49 384 49Z" fill="#E91E63"/>
<path d="M273.944 64.6C274.595 64.7813 275.096 65.112 275.448 65.592C275.811 66.072 275.992 66.6587 275.992 67.352C275.992 68.312 275.645 69.064 274.952 69.608C274.269 70.152 273.325 70.424 272.12 70.424H267.992C267.683 70.424 267.437 70.3387 267.256 70.168C267.085 69.9973 267 69.7573 267 69.448V60.12C267 59.8107 267.085 59.5707 267.256 59.4C267.437 59.2293 267.683 59.144 267.992 59.144H271.96C273.133 59.144 274.051 59.4053 274.712 59.928C275.384 60.44 275.72 61.16 275.72 62.088C275.72 62.6853 275.56 63.2027 275.24 63.64C274.931 64.0773 274.499 64.3973 273.944 64.6ZM269.016 63.896H271.624C273.043 63.896 273.752 63.368 273.752 62.312C273.752 61.7787 273.576 61.384 273.224 61.128C272.872 60.872 272.339 60.744 271.624 60.744H269.016V63.896ZM271.896 68.824C272.643 68.824 273.187 68.6907 273.528 68.424C273.869 68.1573 274.04 67.7413 274.04 67.176C274.04 66.6107 273.864 66.1893 273.512 65.912C273.171 65.6347 272.632 65.496 271.896 65.496H269.016V68.824H271.896ZM283.426 70.568C282.327 70.568 281.373 70.3333 280.562 69.864C279.762 69.3947 279.143 68.7227 278.706 67.848C278.269 66.9733 278.05 65.9493 278.05 64.776C278.05 63.6027 278.263 62.584 278.69 61.72C279.127 60.8453 279.751 60.1733 280.562 59.704C281.373 59.2347 282.327 59 283.426 59C284.525 59 285.474 59.2347 286.274 59.704C287.085 60.1733 287.703 60.8453 288.13 61.72C288.567 62.584 288.786 63.6027 288.786 64.776C288.786 65.9493 288.567 66.9733 288.13 67.848C287.693 68.7227 287.069 69.3947 286.258 69.864C285.458 70.3333 284.514 70.568 283.426 70.568ZM283.426 68.92C284.461 68.92 285.266 68.5627 285.842 67.848C286.429 67.1333 286.722 66.1093 286.722 64.776C286.722 63.4427 286.429 62.424 285.842 61.72C285.266 61.0053 284.461 60.648 283.426 60.648C282.381 60.648 281.565 61.0053 280.978 61.72C280.402 62.424 280.114 63.4427 280.114 64.776C280.114 66.1093 280.402 67.1333 280.978 67.848C281.565 68.5627 282.381 68.92 283.426 68.92ZM296.375 70.568C295.276 70.568 294.321 70.3333 293.511 69.864C292.711 69.3947 292.092 68.7227 291.655 67.848C291.217 66.9733 290.999 65.9493 290.999 64.776C290.999 63.6027 291.212 62.584 291.639 61.72C292.076 60.8453 292.7 60.1733 293.511 59.704C294.321 59.2347 295.276 59 296.375 59C297.473 59 298.423 59.2347 299.223 59.704C300.033 60.1733 300.652 60.8453 301.079 61.72C301.516 62.584 301.735 63.6027 301.735 64.776C301.735 65.9493 301.516 66.9733 301.079 67.848C300.641 68.7227 300.017 69.3947 299.207 69.864C298.407 70.3333 297.463 70.568 296.375 70.568ZM296.375 68.92C297.409 68.92 298.215 68.5627 298.791 67.848C299.377 67.1333 299.671 66.1093 299.671 64.776C299.671 63.4427 299.377 62.424 298.791 61.72C298.215 61.0053 297.409 60.648 296.375 60.648C295.329 60.648 294.513 61.0053 293.927 61.72C293.351 62.424 293.063 63.4427 293.063 64.776C293.063 66.1093 293.351 67.1333 293.927 67.848C294.513 68.5627 295.329 68.92 296.375 68.92ZM313.051 68.872C313.265 69.0747 313.371 69.304 313.371 69.56C313.371 69.8053 313.275 70.024 313.083 70.216C312.902 70.3973 312.683 70.488 312.427 70.488C312.161 70.488 311.915 70.376 311.691 70.152L306.363 65.16V69.48C306.363 69.7893 306.267 70.04 306.075 70.232C305.894 70.424 305.643 70.52 305.323 70.52C305.014 70.52 304.763 70.424 304.571 70.232C304.39 70.04 304.299 69.7893 304.299 69.48V60.088C304.299 59.7787 304.39 59.5333 304.571 59.352C304.763 59.16 305.014 59.064 305.323 59.064C305.643 59.064 305.894 59.16 306.075 59.352C306.267 59.5333 306.363 59.7787 306.363 60.088V64.2L311.515 59.368C311.707 59.176 311.926 59.08 312.171 59.08C312.417 59.08 312.63 59.176 312.811 59.368C313.003 59.5493 313.099 59.7627 313.099 60.008C313.099 60.2533 312.993 60.4773 312.779 60.68L308.475 64.616L313.051 68.872ZM328.71 59.064C329.008 59.064 329.243 59.16 329.414 59.352C329.595 59.5333 329.686 59.7787 329.686 60.088V69.48C329.686 69.7893 329.595 70.04 329.414 70.232C329.232 70.424 328.998 70.52 328.71 70.52C328.368 70.52 328.107 70.3973 327.926 70.152L322.086 62.552V69.48C322.086 69.7893 322 70.04 321.83 70.232C321.659 70.424 321.424 70.52 321.126 70.52C320.827 70.52 320.592 70.424 320.422 70.232C320.251 70.04 320.166 69.7893 320.166 69.48V60.088C320.166 59.7787 320.256 59.5333 320.438 59.352C320.619 59.16 320.859 59.064 321.158 59.064C321.488 59.064 321.744 59.1867 321.926 59.432L327.75 67V60.088C327.75 59.7787 327.835 59.5333 328.006 59.352C328.187 59.16 328.422 59.064 328.71 59.064ZM337.623 70.568C336.524 70.568 335.569 70.3333 334.759 69.864C333.959 69.3947 333.34 68.7227 332.903 67.848C332.465 66.9733 332.247 65.9493 332.247 64.776C332.247 63.6027 332.46 62.584 332.887 61.72C333.324 60.8453 333.948 60.1733 334.759 59.704C335.569 59.2347 336.524 59 337.623 59C338.721 59 339.671 59.2347 340.471 59.704C341.281 60.1733 341.9 60.8453 342.327 61.72C342.764 62.584 342.983 63.6027 342.983 64.776C342.983 65.9493 342.764 66.9733 342.327 67.848C341.889 68.7227 341.265 69.3947 340.455 69.864C339.655 70.3333 338.711 70.568 337.623 70.568ZM337.623 68.92C338.657 68.92 339.463 68.5627 340.039 67.848C340.625 67.1333 340.919 66.1093 340.919 64.776C340.919 63.4427 340.625 62.424 340.039 61.72C339.463 61.0053 338.657 60.648 337.623 60.648C336.577 60.648 335.761 61.0053 335.175 61.72C334.599 62.424 334.311 63.4427 334.311 64.776C334.311 66.1093 334.599 67.1333 335.175 67.848C335.761 68.5627 336.577 68.92 337.623 68.92ZM359.41 59.688C359.485 59.4747 359.602 59.3147 359.762 59.208C359.933 59.1013 360.12 59.048 360.322 59.048C360.578 59.048 360.797 59.128 360.978 59.288C361.17 59.448 361.266 59.6613 361.266 59.928C361.266 60.024 361.24 60.1627 361.186 60.344L357.746 69.864C357.661 70.0773 357.517 70.2427 357.314 70.36C357.122 70.4773 356.909 70.536 356.674 70.536C356.44 70.536 356.221 70.4773 356.018 70.36C355.816 70.2427 355.677 70.0773 355.602 69.864L352.946 62.328L350.242 69.864C350.157 70.0773 350.013 70.2427 349.81 70.36C349.618 70.4773 349.405 70.536 349.17 70.536C348.936 70.536 348.717 70.4773 348.514 70.36C348.322 70.2427 348.189 70.0773 348.114 69.864L344.674 60.344C344.621 60.184 344.594 60.0453 344.594 59.928C344.594 59.6613 344.69 59.448 344.882 59.288C345.085 59.128 345.32 59.048 345.586 59.048C345.8 59.048 345.992 59.1013 346.162 59.208C346.333 59.3147 346.456 59.4747 346.53 59.688L349.25 67.512L352.05 59.736C352.125 59.5227 352.248 59.3573 352.418 59.24C352.589 59.112 352.776 59.048 352.978 59.048C353.181 59.048 353.368 59.112 353.538 59.24C353.72 59.3573 353.848 59.528 353.922 59.752L356.642 67.608L359.41 59.688Z" fill="white"/>
<g style="mix-blend-mode:luminosity" opacity="0.6">
<path style="mix-blend-mode:luminosity" opacity="0.6" d="M606.205 20.0003C586.551 20.1046 576.684 53.9063 573.001 71.2813C569.319 88.6565 573.167 124.3 601.731 119.572C606.348 118.808 607.426 118.651 611.232 116.741C618.006 113.34 626.024 110.948 633.269 110.225C636.24 109.929 639.996 108.948 641.985 108.591C657.927 105.724 674.197 90.2784 669.271 74.0944C665.572 61.9405 654.735 57.0479 643.881 57.7206C637.921 58.0899 631.577 54.5934 630.305 50.7307C626.162 38.1493 621.396 19.9198 606.205 20.0003Z" fill="url(#paint1_linear)"/>
<g style="mix-blend-mode:luminosity" opacity="0.1">
<path d="M620.631 30.9663L595.968 41.029C595.158 41.3594 595.158 42.5067 595.968 42.8374L620.631 52.9001C620.868 52.9966 621.132 52.9966 621.369 52.9001L646.032 42.8374C646.842 42.5069 646.842 41.3596 646.032 41.029L621.369 30.9663C621.132 30.8698 620.868 30.8698 620.631 30.9663Z" fill="#590BB2"/>
</g>
<g style="mix-blend-mode:luminosity" opacity="0.1">
<path d="M665.139 98.3691V103.293C665.139 104.371 664.266 105.246 663.186 105.246H578.814C577.734 105.246 576.861 104.371 576.861 103.293V98.3691C576.861 97.291 577.734 96.416 578.814 96.416H605.378C605.661 96.416 605.931 96.5391 606.116 96.7535L608.631 99.6582H633.369L635.884 96.7535C636.069 96.5393 636.339 96.416 636.622 96.416H663.186C664.266 96.416 665.139 97.291 665.139 98.3691Z" fill="#590BB2"/>
</g>
<g style="mix-blend-mode:luminosity" opacity="0.6">
<path d="M659.29 95.7685H582.71V46.9923C582.71 45.1359 584.215 43.631 586.071 43.631H655.929C657.785 43.631 659.29 45.1359 659.29 46.9923V95.7685Z" fill="#C182F9"/>
</g>
<g style="mix-blend-mode:luminosity" opacity="0.6">
<path d="M665.139 93.0957V98.0195C665.139 99.0977 664.266 99.9727 663.186 99.9727H578.814C577.734 99.9727 576.861 99.0977 576.861 98.0195V93.0957C576.861 92.0176 577.734 91.1426 578.814 91.1426H605.378C605.661 91.1426 605.931 91.2656 606.116 91.4801L608.631 94.3848H633.369L635.884 91.4801C636.069 91.2658 636.339 91.1426 636.622 91.1426H663.186C664.266 91.1426 665.139 92.0176 665.139 93.0957Z" fill="#E2CCFF"/>
</g>
<g style="mix-blend-mode:luminosity" opacity="0.6">
<path d="M653.779 86.4604H588.221C587.682 86.4604 587.245 86.0231 587.245 85.4838V49.4618C587.245 48.9226 587.682 48.4854 588.221 48.4854H653.779C654.318 48.4854 654.755 48.9226 654.755 49.4618V85.4838C654.755 86.0231 654.318 86.4604 653.779 86.4604Z" fill="white"/>
</g>
<g style="mix-blend-mode:luminosity" opacity="0.6">
<path d="M654.755 61.2111V49.4618C654.755 48.9226 654.318 48.4854 653.779 48.4854H588.221C587.682 48.4854 587.245 48.9226 587.245 49.4618V61.2111H654.755Z" fill="#FFD5B8"/>
</g>
<g style="mix-blend-mode:luminosity" opacity="0.6">
<path d="M649.231 70.3728H614.949C614.41 70.3728 613.973 69.9355 613.973 69.3962C613.973 68.857 614.41 68.4197 614.949 68.4197H649.231C649.77 68.4197 650.207 68.857 650.207 69.3962C650.207 69.9355 649.77 70.3728 649.231 70.3728Z" fill="#FFA052"/>
</g>
<g style="mix-blend-mode:luminosity" opacity="0.6">
<path d="M649.231 73.7912H614.949C614.41 73.7912 613.973 73.3539 613.973 72.8146C613.973 72.2753 614.41 71.838 614.949 71.838H649.231C649.77 71.838 650.207 72.2753 650.207 72.8146C650.207 73.3539 649.77 73.7912 649.231 73.7912Z" fill="#FFA052"/>
</g>
<g style="mix-blend-mode:luminosity" opacity="0.6">
<path d="M649.231 77.2097H614.949C614.41 77.2097 613.973 76.7724 613.973 76.2332C613.973 75.6939 614.41 75.2566 614.949 75.2566H649.231C649.77 75.2566 650.207 75.6939 650.207 76.2332C650.207 76.7724 649.77 77.2097 649.231 77.2097Z" fill="#FFA052"/>
</g>
<g style="mix-blend-mode:luminosity" opacity="0.6">
<path d="M649.231 78.6753C649.77 78.6753 650.207 79.1126 650.207 79.6519C650.207 80.1911 649.77 80.6284 649.231 80.6284H614.949C614.41 80.6284 613.973 80.1911 613.973 79.6519C613.973 79.1126 614.41 78.6753 614.949 78.6753H649.231Z" fill="#FFA052"/>
</g>
<g style="mix-blend-mode:luminosity" opacity="0.6">
<path d="M602.441 70.3728H592.769C592.23 70.3728 591.793 69.9355 591.793 69.3962C591.793 68.857 592.23 68.4197 592.769 68.4197H602.441C602.981 68.4197 603.418 68.857 603.418 69.3962C603.418 69.9355 602.98 70.3728 602.441 70.3728Z" fill="#C182F9"/>
</g>
<g style="mix-blend-mode:luminosity" opacity="0.6">
<path d="M607.715 73.7912H592.769C592.23 73.7912 591.793 73.3539 591.793 72.8146C591.793 72.2753 592.23 71.838 592.769 71.838H607.715C608.254 71.838 608.691 72.2753 608.691 72.8146C608.691 73.3539 608.254 73.7912 607.715 73.7912Z" fill="#C182F9"/>
</g>
<g style="mix-blend-mode:luminosity" opacity="0.6">
<path d="M607.715 77.2094H592.769C592.23 77.2094 591.793 76.7721 591.793 76.2328C591.793 75.6936 592.23 75.2562 592.769 75.2562H607.715C608.254 75.2562 608.691 75.6936 608.691 76.2328C608.691 76.7721 608.254 77.2094 607.715 77.2094Z" fill="#C182F9"/>
</g>
<g style="mix-blend-mode:luminosity" opacity="0.6">
<path d="M607.715 80.6279H592.769C592.23 80.6279 591.793 80.1906 591.793 79.6514C591.793 79.1121 592.23 78.6748 592.769 78.6748H607.715C608.254 78.6748 608.691 79.1121 608.691 79.6514C608.691 80.1906 608.254 80.6279 607.715 80.6279Z" fill="#C182F9"/>
</g>
<g style="mix-blend-mode:luminosity" opacity="0.6">
<path d="M593.071 66.8469C593.611 66.8469 594.048 66.4097 594.048 65.8704C594.048 65.331 593.611 64.8938 593.071 64.8938C592.532 64.8938 592.095 65.331 592.095 65.8704C592.095 66.4097 592.532 66.8469 593.071 66.8469Z" fill="#FFA052"/>
</g>
<g style="mix-blend-mode:luminosity" opacity="0.6">
<path d="M596.245 66.8469C596.785 66.8469 597.222 66.4097 597.222 65.8704C597.222 65.331 596.785 64.8938 596.245 64.8938C595.706 64.8938 595.269 65.331 595.269 65.8704C595.269 66.4097 595.706 66.8469 596.245 66.8469Z" fill="#FFA052"/>
</g>
<g style="mix-blend-mode:luminosity" opacity="0.6">
<path d="M590.629 32.3734H590.043V31.7875C590.043 31.2482 589.606 30.8109 589.066 30.8109C588.527 30.8109 588.09 31.2482 588.09 31.7875V32.3734H587.504C586.965 32.3734 586.527 32.8107 586.527 33.35C586.527 33.8893 586.965 34.3266 587.504 34.3266H588.09V34.9125C588.09 35.4518 588.527 35.8891 589.066 35.8891C589.606 35.8891 590.043 35.4518 590.043 34.9125V34.3266H590.629C591.168 34.3266 591.605 33.8893 591.605 33.35C591.605 32.8107 591.168 32.3734 590.629 32.3734Z" fill="#FFA052"/>
</g>
<g style="mix-blend-mode:luminosity" opacity="0.6">
<path d="M604.268 110.137H603.682V109.551C603.682 109.012 603.245 108.574 602.706 108.574C602.166 108.574 601.729 109.012 601.729 109.551V110.137H601.143C600.604 110.137 600.167 110.574 600.167 111.113C600.167 111.653 600.604 112.09 601.143 112.09H601.729V112.676C601.729 113.215 602.166 113.652 602.706 113.652C603.245 113.652 603.682 113.215 603.682 112.676V112.09H604.268C604.807 112.09 605.245 111.653 605.245 111.113C605.245 110.574 604.808 110.137 604.268 110.137Z" fill="#FFA052"/>
</g>
<g style="mix-blend-mode:luminosity" opacity="0.6">
<path d="M655.341 35.8823H654.755V35.2964C654.755 34.7571 654.318 34.3198 653.779 34.3198C653.239 34.3198 652.802 34.7571 652.802 35.2964V35.8823H652.216C651.677 35.8823 651.24 36.3196 651.24 36.8589C651.24 37.3981 651.677 37.8354 652.216 37.8354H652.802V38.4214C652.802 38.9606 653.239 39.398 653.779 39.398C654.318 39.398 654.755 38.9606 654.755 38.4214V37.8354H655.341C655.881 37.8354 656.318 37.3981 656.318 36.8589C656.318 36.3196 655.881 35.8823 655.341 35.8823Z" fill="#C182F9"/>
</g>
<g style="mix-blend-mode:luminosity" opacity="0.6">
<path d="M599.168 29.5053C598.918 29.5053 598.668 29.41 598.477 29.2194L597.605 28.3475L596.733 29.2194C596.352 29.6006 595.734 29.6006 595.352 29.2194C594.971 28.8379 594.971 28.2196 595.352 27.8383L596.915 26.2758C597.296 25.8946 597.914 25.8946 598.296 26.2758L599.858 27.8383C600.24 28.2198 600.24 28.8381 599.858 29.2194C599.668 29.4098 599.418 29.5053 599.168 29.5053Z" fill="#FDD250"/>
</g>
<g style="mix-blend-mode:luminosity" opacity="0.6">
<path d="M615.975 114.462C615.725 114.462 615.475 114.367 615.284 114.177L614.412 113.305L613.54 114.177C613.159 114.558 612.541 114.558 612.159 114.177C611.778 113.795 611.778 113.177 612.159 112.795L613.722 111.233C614.103 110.852 614.721 110.852 615.103 111.233L616.665 112.795C617.047 113.177 617.047 113.795 616.665 114.177C616.475 114.367 616.225 114.462 615.975 114.462Z" fill="#C182F9"/>
</g>
<g style="mix-blend-mode:luminosity" opacity="0.6">
<path d="M638.447 38.5082V57.1195C638.447 57.516 638.207 57.8734 637.838 58.0238L621.369 64.7445C621.133 64.8402 620.867 64.8402 620.631 64.7445L604.162 58.0238C603.793 57.8734 603.553 57.516 603.553 57.1195V38.5082H638.447Z" fill="#B557FF"/>
</g>
<g style="mix-blend-mode:luminosity" opacity="0.6">
<path d="M638.447 38.5082V43.8226L622.477 50.3383C622.006 50.5316 621.508 50.6293 621 50.6293C620.492 50.6293 619.994 50.5316 619.523 50.3383L603.553 43.8226V38.5082H638.447Z" fill="#9526DD"/>
</g>
<g style="mix-blend-mode:luminosity" opacity="0.6">
<path d="M620.631 25.6926L595.968 35.7553C595.158 36.0858 595.158 37.2331 595.968 37.5637L620.631 47.6264C620.868 47.7229 621.132 47.7229 621.369 47.6264L646.032 37.5637C646.842 37.2332 646.842 36.086 646.032 35.7553L621.369 25.6926C621.132 25.5961 620.868 25.5961 620.631 25.6926Z" fill="#C182F9"/>
</g>
<g style="mix-blend-mode:luminosity" opacity="0.6">
<path d="M635.368 81.9144H630.461C629.921 81.9144 629.484 81.4771 629.484 80.9378V75.2681C629.484 73.3738 631.02 71.838 632.914 71.838C634.809 71.838 636.344 73.3738 636.344 75.2681V80.9378C636.344 81.4771 635.907 81.9144 635.368 81.9144Z" fill="#FFC136"/>
</g>
<g style="mix-blend-mode:luminosity" opacity="0.6">
<path d="M632.914 73.4632C634.993 73.4632 636.678 71.7783 636.678 69.6998C636.678 67.6212 634.993 65.9363 632.914 65.9363C630.836 65.9363 629.151 67.6212 629.151 69.6998C629.151 71.7783 630.836 73.4632 632.914 73.4632Z" fill="#FFE783"/>
</g>
<g style="mix-blend-mode:luminosity" opacity="0.6">
<path d="M663.186 90.1663H660.266V46.9925C660.266 44.6005 658.32 42.6548 655.929 42.6548H639.423V41.3151L646.401 38.4681C647.139 38.1669 647.616 37.4571 647.616 36.6599C647.616 35.8624 647.139 35.1526 646.401 34.8513L621.738 24.7886C621.262 24.5942 620.738 24.5942 620.262 24.7886L595.599 34.8513C594.861 35.1524 594.384 35.8624 594.384 36.6599C594.384 37.4571 594.861 38.1669 595.599 38.4681L602.577 41.3151V57.1196C602.577 57.9171 603.054 58.6269 603.793 58.928L620.262 65.6477C620.5 65.745 620.75 65.7935 621 65.7935C621.25 65.7935 621.5 65.7448 621.738 65.6477L631.937 61.4862V65.0616C629.791 65.513 628.174 67.421 628.174 69.6999C628.174 70.8659 628.598 71.9341 629.299 72.7606C628.803 73.4733 628.507 74.3358 628.507 75.2681V80.9378C628.507 82.0147 629.384 82.8909 630.461 82.8909H635.367C636.444 82.8909 637.32 82.0147 637.32 80.9378V75.2681C637.32 74.3354 637.028 73.4702 636.532 72.7575C637.231 71.9315 637.654 70.8643 637.654 69.6999C637.654 67.421 636.037 65.513 633.89 65.0616V60.6894L638.208 58.928C638.946 58.6269 639.423 57.9169 639.423 57.1196V44.6079H655.929C657.243 44.6079 658.313 45.6776 658.313 46.9925V91.1429C658.313 91.6821 658.75 92.1194 659.29 92.1194H663.186C663.724 92.1194 664.162 92.5575 664.162 93.096V98.0198C664.162 98.5583 663.724 98.9964 663.186 98.9964H578.814C578.276 98.9964 577.838 98.5583 577.838 98.0198V93.096C577.838 92.5575 578.276 92.1194 578.814 92.1194H605.378L607.893 95.0243C608.078 95.2386 608.347 95.3618 608.631 95.3618H633.369C633.653 95.3618 633.922 95.2388 634.107 95.0243L636.622 92.1194H653.313C653.853 92.1194 654.29 91.6821 654.29 91.1429C654.29 90.6036 653.853 90.1663 653.313 90.1663H636.622C636.055 90.1663 635.516 90.4124 635.145 90.8411L632.923 93.4085H609.077L606.854 90.8411C606.483 90.4122 605.945 90.1663 605.378 90.1663H583.687V46.9925C583.687 45.6776 584.756 44.6079 586.071 44.6079H597.576C598.115 44.6079 598.553 44.1706 598.553 43.6313C598.553 43.0921 598.115 42.6548 597.576 42.6548H586.071C583.68 42.6548 581.734 44.6007 581.734 46.9925V90.1663H578.814C577.199 90.1663 575.885 91.4806 575.885 93.096V98.0198C575.885 99.6352 577.199 100.95 578.814 100.95H663.186C664.801 100.95 666.115 99.6352 666.115 98.0198V93.096C666.115 91.4806 664.801 90.1663 663.186 90.1663ZM634.216 80.9378V78.0081C634.216 77.4688 633.779 77.0315 633.24 77.0315C632.7 77.0315 632.263 77.4688 632.263 78.0081V80.9378H630.461V75.2681C630.461 74.7874 630.602 74.3409 630.843 73.9624C631.469 74.2679 632.172 74.4399 632.914 74.4399C633.656 74.4399 634.359 74.2681 634.985 73.9628C635.225 74.3411 635.368 74.7874 635.368 75.2683L635.369 80.9378H634.216ZM635.701 69.6999C635.701 71.2366 634.451 72.4868 632.914 72.4868C631.377 72.4868 630.127 71.2366 630.127 69.6999C630.127 68.1632 631.377 66.913 632.914 66.913C634.451 66.913 635.701 68.1632 635.701 69.6999ZM621 26.5968L645.663 36.6595L632.513 42.0247L618.755 35.9651C618.261 35.7476 617.685 35.9714 617.468 36.4653C617.25 36.9589 617.474 37.5353 617.968 37.7526L629.998 43.0513L621 46.7224L596.337 36.6595L621 26.5968ZM621 63.8393L604.53 57.1194V42.1118L620.262 48.5306C620.5 48.6278 620.75 48.6763 621 48.6763C621.25 48.6763 621.5 48.6276 621.738 48.5306L631.937 44.3692V59.3769L621 63.8393ZM633.891 58.58V43.5724L637.47 42.112V57.1196L633.891 58.58Z" fill="#590BB2"/>
</g>
</g>
<path d="M91.4909 30.8042C91.2022 30.8042 90.9142 30.8068 90.6269 30.812C83.4694 30.942 76.572 28.3399 71.0083 23.8353C66.0747 19.841 59.7788 17.4629 52.9259 17.5076C37.288 17.6097 24.4 30.8123 24.6588 46.4482C24.7284 50.6585 25.7126 54.6461 27.4212 58.2213C30.3324 64.3129 29.7046 71.5599 25.6595 76.9654C23.9888 79.1979 22.6215 81.7146 21.6388 84.4758C16.402 99.1902 24.138 115.546 38.8409 120.814C53.8137 126.179 70.2333 118.249 75.3732 103.253C75.754 102.142 76.0619 101.024 76.2999 99.9034C77.8106 92.7886 84.0172 87.6951 91.2906 87.7255C91.3574 87.7257 91.4243 87.7259 91.4911 87.7259C111.655 87.7259 128 74.9836 128 59.2652C128 43.5468 111.654 30.8042 91.4909 30.8042Z" fill="url(#paint2_linear)"/>
<path opacity="0.1" d="M109.016 31.4686H38.9844C37.8194 31.4686 36.875 32.413 36.875 33.578V43.703C36.875 44.868 37.8194 45.8124 38.9844 45.8124H89.5037L91.2783 51.0312C91.8394 52.6811 94.173 52.6811 94.7341 51.0312L96.5087 45.8124H109.016C110.181 45.8124 111.125 44.868 111.125 43.703V33.578C111.125 32.413 110.181 31.4686 109.016 31.4686Z" fill="#590BB2"/>
<path opacity="0.1" d="M112.188 55.0947H35.8119C34.0632 55.0947 32.6478 56.5101 32.6478 58.2588V101.277C32.6478 103.026 34.0632 104.441 35.8119 104.441H62.428V109.398C62.428 110.246 63.3772 110.746 64.0775 110.27L66.8851 108.356L69.6927 110.27C70.393 110.746 71.3422 110.246 71.3422 109.398V104.441H112.188C113.937 104.441 115.352 103.026 115.352 101.277V58.2588C115.352 56.5101 113.937 55.0947 112.188 55.0947Z" fill="#590BB2"/>
<path d="M115.352 52.5635V95.5821C115.352 97.3295 113.936 98.7462 112.188 98.7462H35.8122C34.0648 98.7462 32.6481 97.3295 32.6481 95.5821V52.5635C32.6481 50.8161 34.0648 49.3994 35.8122 49.3994H112.188C113.936 49.3994 115.352 50.8159 115.352 52.5635Z" fill="#C182F9"/>
<path d="M108.383 49.3994V93.7343C108.383 94.8993 107.438 95.8436 106.273 95.8436H76.1094C75.5272 95.8436 74.9998 95.6074 74.618 95.2256C74.2362 94.8438 74 94.3165 74 93.7343C74 94.8986 73.055 95.8436 71.8906 95.8436H41.7266C40.5616 95.8436 39.6172 94.8993 39.6172 93.7343V49.3994H108.383Z" fill="#B557FF"/>
<path d="M115.353 88.9598H32.647V52.563C32.647 50.8156 34.0636 49.3989 35.811 49.3989H112.189C113.936 49.3989 115.353 50.8156 115.353 52.563V88.9598Z" fill="#E2CCFF"/>
<path d="M71.3422 90.7051V103.703C71.3422 104.551 70.3929 105.051 69.6926 104.574L66.8851 102.661L64.0775 104.574C63.3772 105.051 62.4279 104.551 62.4279 103.703V90.7051H71.3422Z" fill="#FFE783"/>
<path d="M62.4279 90.7051H71.3422V95.8435H62.4279V90.7051Z" fill="#FDD250"/>
<path d="M74 50.0765V90.0323C74 91.1967 73.055 92.1417 71.8906 92.1417H41.7266C40.5622 92.1417 39.6172 91.1967 39.6172 90.0323V46.9125C39.6172 45.7481 40.5622 44.8031 41.7266 44.8031H68.7266C71.6396 44.8031 74 47.1635 74 50.0765Z" fill="#FF6666"/>
<path d="M74 52.9141V50.0765C74 47.1635 71.6396 44.8031 68.7266 44.8031H41.7266C40.5622 44.8031 39.6172 45.7481 39.6172 46.9125V52.9141H74Z" fill="#FFE783"/>
<path d="M108.383 46.913V90.0328C108.383 91.1972 107.438 92.1422 106.273 92.1422H76.1094C74.945 92.1422 74 91.1972 74 90.0328V50.077C74 47.164 76.3604 44.8036 79.2734 44.8036H106.273C107.438 44.8036 108.383 45.7486 108.383 46.913Z" fill="white"/>
<path d="M74 74.1484V90.0322C74 91.1972 74.9444 92.1416 76.1094 92.1416H106.273C107.438 92.1416 108.383 91.1972 108.383 90.0322V74.1484H74Z" fill="#EFEBFF"/>
<path d="M109.016 25.7733H38.9844C37.8194 25.7733 36.875 26.7177 36.875 27.8827V38.0077C36.875 39.1727 37.8194 40.1171 38.9844 40.1171H89.5037L91.2783 45.3359C91.8394 46.9858 94.173 46.9858 94.7341 45.3359L96.5087 40.1171H109.016C110.181 40.1171 111.125 39.1727 111.125 38.0077V27.8827C111.125 26.7177 110.181 25.7733 109.016 25.7733Z" fill="white"/>
<path d="M95.8763 44.8036L94.733 48.1617C94.172 49.8112 91.839 49.8112 91.2779 48.1617L90.1367 44.8036H95.8763Z" fill="#EFEBFF"/>
<path d="M51.7461 25.7733H38.9844C37.8194 25.7733 36.875 26.7177 36.875 27.8827V38.0077C36.875 39.1727 37.8194 40.1171 38.9844 40.1171H51.7461V25.7733Z" fill="#CCA1FF"/>
<path d="M54.3223 64.8817V70.0111C54.3223 70.4996 54.8524 70.8038 55.2742 70.5576L59.667 67.9928C60.0853 67.7486 60.0853 67.144 59.667 66.8998L55.2742 64.335C54.8521 64.0888 54.3223 64.3932 54.3223 64.8817Z" fill="white"/>
<path d="M44.4763 50.1374C44.9757 50.1374 45.3804 49.7326 45.3804 49.2333C45.3804 48.734 44.9757 48.3292 44.4763 48.3292C43.977 48.3292 43.5723 48.734 43.5723 49.2333C43.5723 49.7326 43.977 50.1374 44.4763 50.1374Z" fill="#FF6666"/>
<path d="M47.3603 50.1374C47.8596 50.1374 48.2644 49.7326 48.2644 49.2333C48.2644 48.734 47.8596 48.3292 47.3603 48.3292C46.861 48.3292 46.4562 48.734 46.4562 49.2333C46.4562 49.7326 46.861 50.1374 47.3603 50.1374Z" fill="#FF6666"/>
<path d="M50.2444 50.1374C50.7437 50.1374 51.1485 49.7326 51.1485 49.2333C51.1485 48.734 50.7437 48.3292 50.2444 48.3292C49.7451 48.3292 49.3404 48.734 49.3404 49.2333C49.3404 49.7326 49.7451 50.1374 50.2444 50.1374Z" fill="#FF6666"/>
<path d="M55.5489 82.6216H45.1033C44.5207 82.6216 44.0486 82.1493 44.0486 81.5669C44.0486 80.9845 44.5207 80.5122 45.1033 80.5122H55.5489C56.1315 80.5122 56.6036 80.9845 56.6036 81.5669C56.6036 82.1493 56.1315 82.6216 55.5489 82.6216Z" fill="#FFBE92"/>
<path d="M61.2442 86.3136H45.1033C44.5207 86.3136 44.0486 85.8413 44.0486 85.2589C44.0486 84.6765 44.5207 84.2042 45.1033 84.2042H61.2442C61.8268 84.2042 62.2989 84.6765 62.2989 85.2589C62.2989 85.8413 61.8268 86.3136 61.2442 86.3136Z" fill="#FFBE92"/>
<path d="M45.4296 78.8136C46.0121 78.8136 46.4843 78.3414 46.4843 77.7589C46.4843 77.1764 46.0121 76.7042 45.4296 76.7042C44.8471 76.7042 44.3749 77.1764 44.3749 77.7589C44.3749 78.3414 44.8471 78.8136 45.4296 78.8136Z" fill="#FFBE92"/>
<path d="M48.8573 78.8136C49.4398 78.8136 49.912 78.3414 49.912 77.7589C49.912 77.1764 49.4398 76.7042 48.8573 76.7042C48.2748 76.7042 47.8026 77.1764 47.8026 77.7589C47.8026 78.3414 48.2748 78.8136 48.8573 78.8136Z" fill="#FFBE92"/>
<path d="M91.1914 34.7465H57.8631C57.2807 34.7465 56.8084 34.2742 56.8084 33.6918V31.4607C56.8084 30.8783 57.2807 30.406 57.8631 30.406H91.1914C91.7738 30.406 92.2461 30.8783 92.2461 31.4607V33.6918C92.2461 34.2742 91.7738 34.7465 91.1914 34.7465Z" fill="#E2CCFF"/>
<path d="M112.189 48.3441H109.437V46.9126C109.437 45.168 108.018 43.7486 106.273 43.7486H96.3878L97.2641 41.1718H109.016C110.76 41.1718 112.18 39.7524 112.18 38.0077V27.8827C112.18 26.138 110.76 24.7186 109.016 24.7186H38.9844C37.2397 24.7186 35.8203 26.138 35.8203 27.8827V38.0077C35.8203 39.7524 37.2397 41.1718 38.9844 41.1718H58.7492C59.3316 41.1718 59.8039 40.6995 59.8039 40.1171C59.8039 39.5347 59.3316 39.0624 58.7492 39.0624H38.9844C38.4028 39.0624 37.9297 38.5892 37.9297 38.0077V27.8827C37.9297 27.3011 38.4028 26.828 38.9844 26.828H109.016C109.597 26.828 110.07 27.3011 110.07 27.8827V38.0077C110.07 38.5892 109.597 39.0624 109.016 39.0624H96.5087C96.0571 39.0624 95.6555 39.3499 95.5103 39.7775L93.7357 44.9963C93.5708 45.481 93.1356 45.5188 93.0063 45.5188H93.0061C92.8768 45.5188 92.4416 45.481 92.2769 44.9963L90.5023 39.7775C90.3571 39.3499 89.9553 39.0624 89.5039 39.0624H65.2039C64.6215 39.0624 64.1492 39.5347 64.1492 40.1171C64.1492 40.6995 64.6215 41.1718 65.2039 41.1718H88.7483L89.6246 43.7486H79.2734C77.0742 43.7486 75.1344 44.8769 73.9998 46.5842C72.8652 44.8769 70.9254 43.7488 68.7263 43.7488H41.7266C39.9819 43.7488 38.5625 45.1682 38.5625 46.9128V48.3443H35.811C33.4848 48.3443 31.5923 50.2368 31.5923 52.563V95.5825C31.5923 97.9087 33.4848 99.8012 35.811 99.8012H61.3739V103.703C61.3739 104.487 61.8044 105.201 62.4972 105.568C63.1905 105.934 64.0231 105.888 64.6709 105.446L66.8853 103.938L69.0997 105.446C69.4572 105.69 69.8711 105.813 70.2869 105.813C70.6244 105.813 70.9629 105.732 71.2734 105.568C71.9664 105.201 72.3967 104.487 72.3967 103.703V99.8012H112.189C114.515 99.8012 116.408 97.9087 116.408 95.5825V52.5628C116.408 50.2368 114.515 48.3441 112.189 48.3441ZM40.6719 46.9128C40.6719 46.3313 41.145 45.8582 41.7266 45.8582H68.7263C71.0526 45.8582 72.9451 47.7507 72.9451 50.0769V90.0323C72.9451 90.6138 72.472 91.087 71.8904 91.087H41.7266C41.145 91.087 40.6719 90.6138 40.6719 90.0323V46.9128ZM35.811 97.6918C34.6479 97.6918 33.7017 96.7456 33.7017 95.5825V52.5628C33.7017 51.3997 34.6479 50.4534 35.811 50.4534H38.5625V90.0321C38.5625 91.7767 39.9819 93.1961 41.7266 93.1961H61.3739V97.6916H35.811V97.6918ZM70.2871 103.703L67.4789 101.79C67.1207 101.546 66.6495 101.546 66.2913 101.79L63.4831 103.703V93.1963H70.2879L70.2926 103.706C70.2928 103.706 70.2909 103.705 70.2871 103.703ZM114.298 95.5825C114.298 96.7456 113.352 97.6918 112.189 97.6918H72.3965V93.152C73.0071 93.0531 73.5587 92.7802 74 92.384C74.5605 92.8873 75.2985 93.1965 76.1096 93.1965H106.273C108.018 93.1965 109.437 91.7772 109.437 90.0325V55.8541C109.437 55.2717 108.965 54.7994 108.383 54.7994C107.8 54.7994 107.328 55.2717 107.328 55.8541V90.0321C107.328 90.6136 106.855 91.0868 106.273 91.0868H76.1094C75.5278 91.0868 75.0547 90.6136 75.0547 90.0321V50.0767C75.0547 47.7505 76.9472 45.8579 79.2734 45.8579H90.3498C90.797 46.9392 91.8189 47.6279 93.0061 47.6281H93.0063C94.1935 47.6281 95.2155 46.9392 95.6626 45.8579H106.273C106.855 45.8579 107.328 46.3311 107.328 46.9126V49.3994C107.328 49.905 107.687 50.3391 108.183 50.4349C108.259 50.4494 108.335 50.4551 108.41 50.4536H112.189C113.352 50.4536 114.298 51.3999 114.298 52.563V95.5825Z" fill="#590BB2"/>
<path d="M41.5591 36.0968C41.7652 36.3027 42.0349 36.4056 42.3049 36.4056C42.5749 36.4056 42.8447 36.3027 43.0508 36.0968L44.4592 34.6884C44.844 34.8603 45.257 34.9493 45.6711 34.9493C46.4307 34.9493 47.19 34.6601 47.7682 34.0821C48.9246 32.9258 48.9246 31.0442 47.7682 29.8879C46.6119 28.7317 44.7305 28.7317 43.5739 29.8879C42.6806 30.7812 42.4804 32.1065 42.9677 33.1968L41.5593 34.6053C41.1471 35.0172 41.1471 35.6851 41.5591 36.0968ZM45.0653 31.3796C45.2323 31.2126 45.4515 31.129 45.6709 31.129C45.8902 31.129 46.1094 31.2126 46.2765 31.3796C46.6104 31.7135 46.6104 32.2567 46.2765 32.5906C45.9426 32.9245 45.3994 32.9245 45.0655 32.5906C44.7316 32.2567 44.7314 31.7135 45.0653 31.3796Z" fill="#590BB2"/>
<path d="M91.4253 50.0637C85.4478 50.0637 80.5846 54.9267 80.5846 60.9042C80.5846 66.8818 85.4478 71.7447 91.4253 71.7447C97.4029 71.7447 102.266 66.8818 102.266 60.9042C102.266 54.9267 97.4029 50.0637 91.4253 50.0637ZM100.156 60.9042C100.156 62.2082 99.8671 63.4452 99.3524 64.5574C98.5595 64.1522 97.6275 63.8152 96.6034 63.554C96.7079 62.6799 96.7621 61.7876 96.7621 60.904C96.7621 60.0208 96.7081 59.1288 96.6036 58.2548C97.6275 57.9939 98.559 57.6566 99.3526 57.2508C99.8671 58.3635 100.156 59.6004 100.156 60.9042ZM91.4253 69.6353C90.7567 69.6353 89.9667 68.7792 89.3636 67.4011C89.0803 66.7539 88.8454 66.0228 88.6621 65.231C89.5463 65.1101 90.4784 65.0453 91.4255 65.0453C92.3777 65.0453 93.3063 65.1076 94.1842 65.2257C93.5343 68.0016 92.3372 69.6353 91.4253 69.6353ZM91.4253 62.936C90.3569 62.936 89.3109 63.0102 88.3157 63.1492C88.2379 62.4253 88.1978 61.6727 88.1978 60.9042C88.1978 60.1113 88.241 59.3621 88.3174 58.6594C89.3134 58.7989 90.3595 58.8725 91.4253 58.8725C92.4933 58.8725 93.5391 58.7984 94.5348 58.6592C94.6126 59.3831 94.6527 60.1358 94.6527 60.9042C94.6527 61.6971 94.6094 62.4464 94.5331 63.149C93.5372 63.0098 92.4912 62.936 91.4253 62.936ZM82.6942 60.9042C82.6942 59.6002 82.9836 58.3633 83.4983 57.251C84.2912 57.6562 85.2231 57.9933 86.2472 58.2544C86.1428 59.1285 86.0886 60.0208 86.0886 60.9044C86.0886 61.7876 86.1426 62.6795 86.247 63.5532C85.2231 63.8143 84.2923 64.152 83.4985 64.5581C82.9836 63.4456 82.6942 62.2084 82.6942 60.9042ZM91.4253 52.1731C92.094 52.1731 92.8838 53.0293 93.4868 54.4073C93.7701 55.0545 94.0051 55.7856 94.1884 56.5773C93.304 56.6983 92.3718 56.7631 91.4253 56.7631C90.4732 56.7631 89.5444 56.7009 88.6667 56.5827C89.3164 53.807 90.5137 52.1731 91.4253 52.1731ZM98.2361 55.4502C97.6583 55.7306 96.9876 55.9738 96.2465 56.171C95.9822 55.0087 95.6175 53.9304 95.1562 53.0124C96.3594 53.5834 97.4111 54.4219 98.2361 55.4502ZM87.6943 53.0124C87.2323 53.9319 86.8672 55.0123 86.6027 56.1765C85.864 55.9795 85.193 55.7363 84.6127 55.4523C85.4381 54.4232 86.4902 53.5838 87.6943 53.0124ZM84.6146 66.3584C85.1923 66.0779 85.8631 65.8347 86.6039 65.6377C86.8682 66.7999 87.233 67.8782 87.6943 68.7962C86.4913 68.225 85.4398 67.3868 84.6146 66.3584ZM95.1564 68.7962C95.6184 67.8768 95.9835 66.7963 96.2478 65.6322C96.9865 65.8292 97.6575 66.0724 98.2378 66.3563C97.4126 67.3855 96.3602 68.2248 95.1564 68.7962Z" fill="#590BB2"/>
<path d="M104.461 85.2588C104.461 85.841 103.989 86.3135 103.406 86.3135H79.5114C78.9292 86.3135 78.4567 85.841 78.4567 85.2588C78.4567 84.6766 78.9292 84.2041 79.5114 84.2041H103.406C103.989 84.2041 104.461 84.6766 104.461 85.2588Z" fill="#D6B0FF"/>
<path d="M104.461 81.5667C104.461 82.1488 103.989 82.6213 103.406 82.6213H79.5114C78.9292 82.6213 78.4567 82.1488 78.4567 81.5667C78.4567 80.9845 78.9292 80.512 79.5114 80.512H103.406C103.989 80.512 104.461 80.9845 104.461 81.5667Z" fill="#D6B0FF"/>
<path d="M104.461 77.8748C104.461 78.4569 103.989 78.9294 103.406 78.9294H79.5114C78.9292 78.9294 78.4567 78.4569 78.4567 77.8748C78.4567 77.2926 78.9292 76.8201 79.5114 76.8201H103.406C103.989 76.8201 104.461 77.2926 104.461 77.8748Z" fill="#D6B0FF"/>
<path d="M118.727 33.8833C118.457 33.8833 118.187 33.7804 117.982 33.5745L117.04 32.6329L116.098 33.5745C115.686 33.9863 115.018 33.9863 114.607 33.5745C114.195 33.1626 114.195 32.4947 114.607 32.083L116.294 30.3955C116.706 29.9837 117.374 29.9837 117.785 30.3955L119.473 32.083C119.885 32.4949 119.885 33.1628 119.473 33.5745C119.267 33.7804 118.997 33.8833 118.727 33.8833Z" fill="#C182F9"/>
<path d="M88.8308 109.375C88.561 109.375 88.2908 109.272 88.0852 109.066L87.1433 108.125L86.2015 109.066C85.7899 109.478 85.1217 109.478 84.7102 109.066C84.2982 108.654 84.2982 107.986 84.7102 107.575L86.3977 105.887C86.8092 105.475 87.4774 105.475 87.889 105.887L89.5765 107.575C89.9884 107.987 89.9884 108.654 89.5765 109.066C89.3706 109.272 89.1006 109.375 88.8308 109.375Z" fill="#C182F9"/>
<path d="M33.2891 42.5536H32.6562V41.9208C32.6562 41.3384 32.184 40.8661 31.6016 40.8661C31.0192 40.8661 30.5469 41.3384 30.5469 41.9208V42.5536H29.9141C29.3317 42.5536 28.8594 43.0259 28.8594 43.6083C28.8594 44.1907 29.3317 44.663 29.9141 44.663H30.5469V45.2958C30.5469 45.8782 31.0192 46.3505 31.6016 46.3505C32.184 46.3505 32.6562 45.8782 32.6562 45.2958V44.663H33.2891C33.8715 44.663 34.3437 44.1907 34.3437 43.6083C34.3437 43.0259 33.8715 42.5536 33.2891 42.5536Z" fill="#FFE052"/>
<path d="M56.0098 109.4H55.377V108.767C55.377 108.184 54.9047 107.712 54.3223 107.712C53.7399 107.712 53.2676 108.184 53.2676 108.767V109.4H52.6348C52.0524 109.4 51.5801 109.872 51.5801 110.454C51.5801 111.037 52.0524 111.509 52.6348 111.509H53.2676V112.142C53.2676 112.724 53.7399 113.197 54.3223 113.197C54.9047 113.197 55.377 112.724 55.377 112.142V111.509H56.0098C56.5922 111.509 57.0645 111.037 57.0645 110.454C57.0645 109.872 56.5922 109.4 56.0098 109.4Z" fill="#FDD250"/>
<path d="M63.9864 114.545H63.3536V113.912C63.3536 113.329 62.8813 112.857 62.2989 112.857C61.7165 112.857 61.2442 113.329 61.2442 113.912V114.545H60.6114C60.029 114.545 59.5567 115.017 59.5567 115.599C59.5567 116.182 60.029 116.654 60.6114 116.654H61.2442V117.287C61.2442 117.869 61.7165 118.342 62.2989 118.342C62.8813 118.342 63.3536 117.869 63.3536 117.287V116.654H63.9864C64.5688 116.654 65.0411 116.182 65.0411 115.599C65.0411 115.017 64.5688 114.545 63.9864 114.545Z" fill="#C182F9"/>
<defs>
<linearGradient id="paint0_linear" x1="8" y1="66.5" x2="682" y2="66.5" gradientUnits="userSpaceOnUse">
<stop offset="0.546875" stop-color="#41237E"/>
<stop offset="1" stop-color="#92125F"/>
</linearGradient>
<linearGradient id="paint1_linear" x1="749.176" y1="19.2936" x2="484.645" y2="113.914" gradientUnits="userSpaceOnUse">
<stop stop-color="#FFA052"/>
<stop offset="1" stop-color="white" stop-opacity="0"/>
</linearGradient>
<linearGradient id="paint2_linear" x1="83.6837" y1="4.40391" x2="60.9001" y2="153.13" gradientUnits="userSpaceOnUse">
<stop stop-color="#EA72BA" stop-opacity="0.8"/>
<stop offset="1" stop-color="#50385F"/>
</linearGradient>
</defs>
</svg>
