<svg width="500" height="96" viewBox="0 0 500 96" fill="none" xmlns="http://www.w3.org/2000/svg">
<path d="M492.764 0H7.23589C3.23962 0 0 3.07005 0 6.85714V89.1429C0 92.93 3.23962 96 7.23589 96H492.764C496.76 96 500 92.93 500 89.1429V6.85714C500 3.07005 496.76 0 492.764 0Z" fill="url(#paint0_linear)"/>
<path d="M130.575 30.0397C131.399 30.2573 132.034 30.6541 132.48 31.2301C132.939 31.8061 133.169 32.5101 133.169 33.3421C133.169 34.4941 132.729 35.3965 131.852 36.0493C130.987 36.7021 129.792 37.0285 128.266 37.0285H123.038C122.647 37.0285 122.336 36.9261 122.106 36.7213C121.89 36.5165 121.782 36.2285 121.782 35.8573V24.6637C121.782 24.2925 121.89 24.0045 122.106 23.7997C122.336 23.5949 122.647 23.4925 123.038 23.4925H128.063C129.548 23.4925 130.711 23.8061 131.548 24.4333C132.399 25.0477 132.824 25.9117 132.824 27.0253C132.824 27.7421 132.622 28.3629 132.216 28.8877C131.825 29.4125 131.278 29.7965 130.575 30.0397ZM124.335 29.1949H127.637C129.434 29.1949 130.332 28.5613 130.332 27.2941C130.332 26.6541 130.109 26.1805 129.664 25.8733C129.218 25.5661 128.543 25.4125 127.637 25.4125H124.335V29.1949ZM127.982 35.1085C128.928 35.1085 129.617 34.9485 130.048 34.6285C130.48 34.3085 130.697 33.8093 130.697 33.1309C130.697 32.4525 130.474 31.9469 130.028 31.6141C129.596 31.2813 128.914 31.1149 127.982 31.1149H124.335V35.1085H127.982ZM140.009 37.1821C138.996 37.1821 138.104 36.9837 137.334 36.5869C136.578 36.1901 135.991 35.6205 135.572 34.8781C135.153 34.1357 134.944 33.2717 134.944 32.2861C134.944 31.3005 135.153 30.4429 135.572 29.7133C135.991 28.9709 136.578 28.4013 137.334 28.0045C138.104 27.6077 138.996 27.4093 140.009 27.4093C141.022 27.4093 141.907 27.6077 142.663 28.0045C143.433 28.4013 144.02 28.9709 144.425 29.7133C144.844 30.4429 145.054 31.3005 145.054 32.2861C145.054 33.2717 144.844 34.1357 144.425 34.8781C144.02 35.6205 143.433 36.1901 142.663 36.5869C141.907 36.9837 141.022 37.1821 140.009 37.1821ZM139.988 35.3197C140.813 35.3197 141.441 35.0637 141.873 34.5517C142.305 34.0397 142.521 33.2845 142.521 32.2861C142.521 31.3005 142.305 30.5517 141.873 30.0397C141.441 29.5149 140.819 29.2525 140.009 29.2525C139.198 29.2525 138.57 29.5149 138.124 30.0397C137.692 30.5517 137.476 31.3005 137.476 32.2861C137.476 33.2845 137.692 34.0397 138.124 34.5517C138.556 35.0637 139.178 35.3197 139.988 35.3197ZM151.764 37.1821C150.751 37.1821 149.86 36.9837 149.09 36.5869C148.333 36.1901 147.745 35.6205 147.327 34.8781C146.908 34.1357 146.699 33.2717 146.699 32.2861C146.699 31.3005 146.908 30.4429 147.327 29.7133C147.745 28.9709 148.333 28.4013 149.09 28.0045C149.86 27.6077 150.751 27.4093 151.764 27.4093C152.777 27.4093 153.661 27.6077 154.418 28.0045C155.188 28.4013 155.776 28.9709 156.181 29.7133C156.599 30.4429 156.809 31.3005 156.809 32.2861C156.809 33.2717 156.599 34.1357 156.181 34.8781C155.776 35.6205 155.188 36.1901 154.418 36.5869C153.661 36.9837 152.777 37.1821 151.764 37.1821ZM151.744 35.3197C152.567 35.3197 153.195 35.0637 153.628 34.5517C154.06 34.0397 154.276 33.2845 154.276 32.2861C154.276 31.3005 154.06 30.5517 153.628 30.0397C153.195 29.5149 152.575 29.2525 151.764 29.2525C150.954 29.2525 150.326 29.5149 149.88 30.0397C149.447 30.5517 149.232 31.3005 149.232 32.2861C149.232 33.2845 149.447 34.0397 149.88 34.5517C150.312 35.0637 150.933 35.3197 151.744 35.3197ZM167.814 35.1661C168.084 35.4093 168.219 35.6845 168.219 35.9917C168.219 36.2861 168.104 36.5485 167.875 36.7789C167.658 37.0093 167.402 37.1245 167.105 37.1245C166.808 37.1245 166.531 37.0093 166.274 36.7789L161.533 32.7085V35.9917C161.533 36.3629 161.412 36.6445 161.169 36.8365C160.925 37.0285 160.622 37.1245 160.257 37.1245C159.892 37.1245 159.588 37.0285 159.345 36.8365C159.116 36.6445 159.001 36.3629 159.001 35.9917V24.5293C159.001 24.1581 159.116 23.8765 159.345 23.6845C159.588 23.4925 159.892 23.3965 160.257 23.3965C160.622 23.3965 160.925 23.4925 161.169 23.6845C161.412 23.8765 161.533 24.1581 161.533 24.5293V31.7485L165.869 27.8125C166.112 27.5821 166.389 27.4669 166.7 27.4669C167.01 27.4669 167.281 27.5757 167.51 27.7933C167.739 28.0109 167.855 28.2669 167.855 28.5613C167.855 28.8557 167.726 29.1245 167.47 29.3677L164.289 32.1709L167.814 35.1661ZM179.861 27.4093C181.239 27.4093 182.259 27.7357 182.92 28.3885C183.596 29.0285 183.933 30.0077 183.933 31.3261V36.0109C183.933 36.3565 183.826 36.6317 183.609 36.8365C183.394 37.0285 183.096 37.1245 182.718 37.1245C182.367 37.1245 182.077 37.0221 181.847 36.8173C181.631 36.6125 181.522 36.3437 181.522 36.0109V35.5885C181.293 36.0877 180.928 36.4781 180.428 36.7597C179.942 37.0413 179.375 37.1821 178.726 37.1821C178.065 37.1821 177.464 37.0541 176.923 36.7981C176.383 36.5421 175.958 36.1901 175.647 35.7421C175.336 35.2941 175.181 34.7949 175.181 34.2445C175.181 33.5533 175.363 33.0093 175.728 32.6125C176.106 32.2157 176.714 31.9277 177.551 31.7485C178.389 31.5693 179.544 31.4797 181.016 31.4797H181.522V31.0381C181.522 30.4109 181.381 29.9565 181.097 29.6749C180.813 29.3805 180.355 29.2333 179.719 29.2333C179.328 29.2333 178.929 29.2909 178.524 29.4061C178.119 29.5085 177.64 29.6621 177.085 29.8669C176.734 30.0333 176.478 30.1165 176.315 30.1165C176.072 30.1165 175.87 30.0333 175.708 29.8669C175.559 29.7005 175.485 29.4829 175.485 29.2141C175.485 28.9965 175.539 28.8109 175.647 28.6573C175.768 28.4909 175.965 28.3373 176.234 28.1965C176.708 27.9533 177.268 27.7613 177.916 27.6205C178.578 27.4797 179.226 27.4093 179.861 27.4093ZM179.233 35.4541C179.909 35.4541 180.456 35.2429 180.874 34.8205C181.307 34.3853 181.522 33.8285 181.522 33.1501V32.7469H181.158C180.253 32.7469 179.551 32.7853 179.051 32.8621C178.551 32.9389 178.193 33.0733 177.977 33.2653C177.761 33.4573 177.653 33.7197 177.653 34.0525C177.653 34.4621 177.802 34.8013 178.098 35.0701C178.41 35.3261 178.787 35.4541 179.233 35.4541ZM197.215 25.2781C196.593 25.3165 196.141 25.4957 195.857 25.8157C195.574 26.1357 195.432 26.5965 195.432 27.1981V27.6397H197.154C197.91 27.6397 198.289 27.9405 198.289 28.5421C198.289 29.1437 197.91 29.4445 197.154 29.4445H195.432V35.9917C195.432 36.3629 195.31 36.6445 195.067 36.8365C194.838 37.0285 194.541 37.1245 194.176 37.1245C193.811 37.1245 193.507 37.0285 193.264 36.8365C193.021 36.6445 192.899 36.3629 192.899 35.9917V29.4445H191.886C191.13 29.4445 190.752 29.1437 190.752 28.5421C190.752 27.9405 191.13 27.6397 191.886 27.6397H192.899V27.5053C192.899 26.3021 193.23 25.3613 193.892 24.6829C194.567 23.9917 195.513 23.6013 196.729 23.5117L197.255 23.4733C197.796 23.4349 198.174 23.4925 198.39 23.6461C198.619 23.7869 198.734 24.0109 198.734 24.3181C198.734 24.8685 198.404 25.1757 197.742 25.2397L197.215 25.2781ZM205.104 27.4477C205.455 27.4221 205.732 27.4925 205.935 27.6589C206.137 27.8253 206.239 28.0749 206.239 28.4077C206.239 28.7533 206.151 29.0093 205.975 29.1757C205.8 29.3421 205.483 29.4509 205.023 29.5021L204.415 29.5597C203.619 29.6365 203.031 29.8925 202.653 30.3277C202.288 30.7629 202.106 31.3069 202.106 31.9597V35.9917C202.106 36.3629 201.984 36.6509 201.741 36.8557C201.498 37.0477 201.194 37.1437 200.829 37.1437C200.465 37.1437 200.161 37.0477 199.918 36.8557C199.688 36.6509 199.573 36.3629 199.573 35.9917V28.5613C199.573 28.2029 199.688 27.9277 199.918 27.7357C200.161 27.5437 200.458 27.4477 200.809 27.4477C201.16 27.4477 201.444 27.5437 201.66 27.7357C201.876 27.9149 201.984 28.1773 201.984 28.5229V29.2909C202.241 28.7277 202.619 28.2925 203.119 27.9853C203.632 27.6781 204.199 27.5053 204.821 27.4669L205.104 27.4477ZM215.073 34.4557C215.303 34.4557 215.486 34.5389 215.62 34.7053C215.769 34.8717 215.843 35.0957 215.843 35.3773C215.843 35.7741 215.593 36.1069 215.093 36.3757C214.635 36.6189 214.114 36.8173 213.533 36.9709C212.953 37.1117 212.399 37.1821 211.872 37.1821C210.279 37.1821 209.015 36.7469 208.083 35.8765C207.151 35.0061 206.685 33.8157 206.685 32.3053C206.685 31.3453 206.888 30.4941 207.293 29.7517C207.698 29.0093 208.266 28.4333 208.995 28.0237C209.738 27.6141 210.575 27.4093 211.507 27.4093C212.399 27.4093 213.176 27.5949 213.837 27.9661C214.499 28.3373 215.012 28.8621 215.377 29.5405C215.742 30.2189 215.924 31.0189 215.924 31.9405C215.924 32.4909 215.668 32.7661 215.154 32.7661H209.177C209.258 33.6493 209.522 34.3021 209.967 34.7245C210.413 35.1341 211.062 35.3389 211.912 35.3389C212.345 35.3389 212.723 35.2877 213.047 35.1853C213.385 35.0829 213.763 34.9421 214.182 34.7629C214.587 34.5581 214.884 34.4557 215.073 34.4557ZM211.568 29.0989C210.879 29.0989 210.326 29.3037 209.907 29.7133C209.501 30.1229 209.258 30.7117 209.177 31.4797H213.756C213.729 30.6989 213.527 30.1101 213.148 29.7133C212.771 29.3037 212.244 29.0989 211.568 29.0989ZM225.938 34.4557C226.168 34.4557 226.35 34.5389 226.485 34.7053C226.634 34.8717 226.708 35.0957 226.708 35.3773C226.708 35.7741 226.458 36.1069 225.958 36.3757C225.499 36.6189 224.979 36.8173 224.398 36.9709C223.818 37.1117 223.263 37.1821 222.737 37.1821C221.143 37.1821 219.88 36.7469 218.948 35.8765C218.016 35.0061 217.55 33.8157 217.55 32.3053C217.55 31.3453 217.753 30.4941 218.158 29.7517C218.563 29.0093 219.13 28.4333 219.86 28.0237C220.603 27.6141 221.44 27.4093 222.372 27.4093C223.263 27.4093 224.04 27.5949 224.702 27.9661C225.364 28.3373 225.877 28.8621 226.242 29.5405C226.606 30.2189 226.789 31.0189 226.789 31.9405C226.789 32.4909 226.533 32.7661 226.019 32.7661H220.042C220.123 33.6493 220.386 34.3021 220.832 34.7245C221.278 35.1341 221.926 35.3389 222.777 35.3389C223.21 35.3389 223.588 35.2877 223.912 35.1853C224.25 35.0829 224.628 34.9421 225.046 34.7629C225.452 34.5581 225.749 34.4557 225.938 34.4557ZM222.433 29.0989C221.744 29.0989 221.19 29.3037 220.771 29.7133C220.366 30.1229 220.123 30.7117 220.042 31.4797H224.621C224.594 30.6989 224.391 30.1101 224.013 29.7133C223.635 29.3037 223.109 29.0989 222.433 29.0989ZM239.71 35.3581C240.385 35.3965 240.723 35.6845 240.723 36.2221C240.723 36.5293 240.588 36.7661 240.318 36.9325C240.061 37.0861 239.69 37.1501 239.203 37.1245L238.656 37.0861C236.387 36.9325 235.253 35.7805 235.253 33.6301V29.4445H234.239C233.875 29.4445 233.591 29.3677 233.389 29.2141C233.2 29.0605 233.105 28.8365 233.105 28.5421C233.105 28.2477 233.2 28.0237 233.389 27.8701C233.591 27.7165 233.875 27.6397 234.239 27.6397H235.253V25.8733C235.253 25.5277 235.368 25.2525 235.597 25.0477C235.826 24.8429 236.137 24.7405 236.529 24.7405C236.907 24.7405 237.211 24.8429 237.441 25.0477C237.67 25.2525 237.785 25.5277 237.785 25.8733V27.6397H239.507C239.872 27.6397 240.149 27.7165 240.338 27.8701C240.541 28.0237 240.642 28.2477 240.642 28.5421C240.642 28.8365 240.541 29.0605 240.338 29.2141C240.149 29.3677 239.872 29.4445 239.507 29.4445H237.785V33.8029C237.785 34.7501 238.245 35.2557 239.163 35.3197L239.71 35.3581ZM247.675 27.4477C248.026 27.4221 248.303 27.4925 248.506 27.6589C248.708 27.8253 248.81 28.0749 248.81 28.4077C248.81 28.7533 248.722 29.0093 248.546 29.1757C248.37 29.3421 248.054 29.4509 247.594 29.5021L246.986 29.5597C246.19 29.6365 245.602 29.8925 245.224 30.3277C244.859 30.7629 244.677 31.3069 244.677 31.9597V35.9917C244.677 36.3629 244.555 36.6509 244.312 36.8557C244.069 37.0477 243.765 37.1437 243.4 37.1437C243.035 37.1437 242.732 37.0477 242.488 36.8557C242.259 36.6509 242.144 36.3629 242.144 35.9917V28.5613C242.144 28.2029 242.259 27.9277 242.488 27.7357C242.732 27.5437 243.029 27.4477 243.38 27.4477C243.731 27.4477 244.014 27.5437 244.231 27.7357C244.447 27.9149 244.555 28.1773 244.555 28.5229V29.2909C244.812 28.7277 245.19 28.2925 245.69 27.9853C246.203 27.6781 246.77 27.5053 247.391 27.4669L247.675 27.4477ZM251.258 37.1437C250.893 37.1437 250.589 37.0477 250.346 36.8557C250.116 36.6509 250.001 36.3629 250.001 35.9917V28.5805C250.001 28.2093 250.116 27.9277 250.346 27.7357C250.589 27.5437 250.893 27.4477 251.258 27.4477C251.622 27.4477 251.926 27.5437 252.169 27.7357C252.412 27.9277 252.534 28.2093 252.534 28.5805V35.9917C252.534 36.3629 252.412 36.6509 252.169 36.8557C251.926 37.0477 251.622 37.1437 251.258 37.1437ZM251.258 25.7389C250.798 25.7389 250.433 25.6237 250.164 25.3933C249.893 25.1501 249.758 24.8365 249.758 24.4525C249.758 24.0685 249.893 23.7613 250.164 23.5309C250.433 23.3005 250.798 23.1853 251.258 23.1853C251.703 23.1853 252.061 23.3005 252.331 23.5309C252.615 23.7613 252.757 24.0685 252.757 24.4525C252.757 24.8365 252.622 25.1501 252.352 25.3933C252.081 25.6237 251.716 25.7389 251.258 25.7389ZM259.542 27.4093C260.92 27.4093 261.939 27.7357 262.601 28.3885C263.276 29.0285 263.614 30.0077 263.614 31.3261V36.0109C263.614 36.3565 263.507 36.6317 263.29 36.8365C263.074 37.0285 262.777 37.1245 262.399 37.1245C262.048 37.1245 261.757 37.0221 261.527 36.8173C261.311 36.6125 261.203 36.3437 261.203 36.0109V35.5885C260.974 36.0877 260.609 36.4781 260.109 36.7597C259.623 37.0413 259.056 37.1821 258.407 37.1821C257.745 37.1821 257.145 37.0541 256.604 36.7981C256.064 36.5421 255.638 36.1901 255.328 35.7421C255.017 35.2941 254.862 34.7949 254.862 34.2445C254.862 33.5533 255.044 33.0093 255.409 32.6125C255.787 32.2157 256.395 31.9277 257.232 31.7485C258.069 31.5693 259.224 31.4797 260.697 31.4797H261.203V31.0381C261.203 30.4109 261.061 29.9565 260.778 29.6749C260.494 29.3805 260.035 29.2333 259.4 29.2333C259.009 29.2333 258.61 29.2909 258.205 29.4061C257.8 29.5085 257.32 29.6621 256.766 29.8669C256.415 30.0333 256.158 30.1165 255.996 30.1165C255.753 30.1165 255.551 30.0333 255.389 29.8669C255.24 29.7005 255.166 29.4829 255.166 29.2141C255.166 28.9965 255.22 28.8109 255.328 28.6573C255.449 28.4909 255.645 28.3373 255.915 28.1965C256.388 27.9533 256.949 27.7613 257.597 27.6205C258.259 27.4797 258.907 27.4093 259.542 27.4093ZM258.914 35.4541C259.589 35.4541 260.136 35.2429 260.555 34.8205C260.987 34.3853 261.203 33.8285 261.203 33.1501V32.7469H260.839C259.933 32.7469 259.232 32.7853 258.732 32.8621C258.232 32.9389 257.874 33.0733 257.658 33.2653C257.441 33.4573 257.334 33.7197 257.334 34.0525C257.334 34.4621 257.482 34.8013 257.779 35.0701C258.09 35.3261 258.468 35.4541 258.914 35.4541ZM267.546 37.1437C267.181 37.1437 266.877 37.0477 266.634 36.8557C266.404 36.6509 266.289 36.3629 266.289 35.9917V24.5293C266.289 24.1581 266.404 23.8765 266.634 23.6845C266.877 23.4925 267.181 23.3965 267.546 23.3965C267.91 23.3965 268.214 23.4925 268.457 23.6845C268.7 23.8765 268.822 24.1581 268.822 24.5293V35.9917C268.822 36.3629 268.7 36.6509 268.457 36.8557C268.214 37.0477 267.91 37.1437 267.546 37.1437ZM281.533 37.1821C280.547 37.1821 279.676 36.9837 278.92 36.5869C278.177 36.1901 277.603 35.6269 277.198 34.8973C276.792 34.1677 276.59 33.3165 276.59 32.3437C276.59 31.3709 276.799 30.5133 277.218 29.7709C277.65 29.0157 278.251 28.4333 279.021 28.0237C279.791 27.6141 280.676 27.4093 281.675 27.4093C282.202 27.4093 282.729 27.4797 283.255 27.6205C283.796 27.7613 284.268 27.9533 284.674 28.1965C285.106 28.4653 285.322 28.8045 285.322 29.2141C285.322 29.4957 285.247 29.7261 285.099 29.9053C284.964 30.0717 284.781 30.1549 284.552 30.1549C284.404 30.1549 284.248 30.1229 284.086 30.0589C283.924 29.9949 283.762 29.9181 283.6 29.8285C283.302 29.6621 283.019 29.5341 282.749 29.4445C282.479 29.3421 282.168 29.2909 281.817 29.2909C280.98 29.2909 280.331 29.5533 279.872 30.0781C279.426 30.5901 279.203 31.3325 279.203 32.3053C279.203 33.2653 279.426 34.0077 279.872 34.5325C280.331 35.0445 280.98 35.3005 281.817 35.3005C282.155 35.3005 282.452 35.2557 282.708 35.1661C282.978 35.0637 283.276 34.9293 283.6 34.7629C283.802 34.6477 283.978 34.5645 284.127 34.5133C284.275 34.4493 284.424 34.4173 284.572 34.4173C284.789 34.4173 284.971 34.5069 285.119 34.6861C285.268 34.8653 285.342 35.0893 285.342 35.3581C285.342 35.5757 285.288 35.7677 285.18 35.9341C285.085 36.0877 284.923 36.2285 284.694 36.3565C284.275 36.6125 283.789 36.8173 283.235 36.9709C282.682 37.1117 282.114 37.1821 281.533 37.1821ZM288.387 37.1437C288.022 37.1437 287.718 37.0477 287.475 36.8557C287.246 36.6509 287.131 36.3629 287.131 35.9917V24.5293C287.131 24.1581 287.246 23.8765 287.475 23.6845C287.718 23.4925 288.022 23.3965 288.387 23.3965C288.752 23.3965 289.056 23.4925 289.299 23.6845C289.542 23.8765 289.664 24.1581 289.664 24.5293V35.9917C289.664 36.3629 289.542 36.6509 289.299 36.8557C289.056 37.0477 288.752 37.1437 288.387 37.1437ZM296.671 27.4093C298.049 27.4093 299.069 27.7357 299.731 28.3885C300.407 29.0285 300.744 30.0077 300.744 31.3261V36.0109C300.744 36.3565 300.636 36.6317 300.42 36.8365C300.204 37.0285 299.907 37.1245 299.528 37.1245C299.177 37.1245 298.887 37.0221 298.657 36.8173C298.441 36.6125 298.333 36.3437 298.333 36.0109V35.5885C298.103 36.0877 297.739 36.4781 297.239 36.7597C296.753 37.0413 296.185 37.1821 295.537 37.1821C294.876 37.1821 294.274 37.0541 293.734 36.7981C293.194 36.5421 292.768 36.1901 292.457 35.7421C292.147 35.2941 291.991 34.7949 291.991 34.2445C291.991 33.5533 292.174 33.0093 292.538 32.6125C292.917 32.2157 293.525 31.9277 294.362 31.7485C295.2 31.5693 296.355 31.4797 297.826 31.4797H298.333V31.0381C298.333 30.4109 298.191 29.9565 297.907 29.6749C297.624 29.3805 297.165 29.2333 296.53 29.2333C296.138 29.2333 295.739 29.2909 295.334 29.4061C294.929 29.5085 294.45 29.6621 293.896 29.8669C293.545 30.0333 293.288 30.1165 293.126 30.1165C292.883 30.1165 292.68 30.0333 292.518 29.8669C292.37 29.7005 292.295 29.4829 292.295 29.2141C292.295 28.9965 292.349 28.8109 292.457 28.6573C292.579 28.4909 292.775 28.3373 293.045 28.1965C293.518 27.9533 294.078 27.7613 294.726 27.6205C295.389 27.4797 296.037 27.4093 296.671 27.4093ZM296.043 35.4541C296.719 35.4541 297.266 35.2429 297.684 34.8205C298.117 34.3853 298.333 33.8285 298.333 33.1501V32.7469H297.968C297.064 32.7469 296.361 32.7853 295.861 32.8621C295.362 32.9389 295.004 33.0733 294.787 33.2653C294.572 33.4573 294.463 33.7197 294.463 34.0525C294.463 34.4621 294.612 34.8013 294.909 35.0701C295.22 35.3261 295.598 35.4541 296.043 35.4541ZM307.005 37.1821C305.533 37.1821 304.344 36.9069 303.439 36.3565C303.007 36.1133 302.791 35.7677 302.791 35.3197C302.791 35.0637 302.865 34.8589 303.014 34.7053C303.163 34.5389 303.345 34.4557 303.561 34.4557C303.791 34.4557 304.108 34.5581 304.513 34.7629C304.946 34.9549 305.337 35.1021 305.688 35.2045C306.053 35.3069 306.512 35.3581 307.066 35.3581C307.633 35.3581 308.072 35.2685 308.383 35.0893C308.707 34.9101 308.869 34.6605 308.869 34.3405C308.869 34.1229 308.802 33.9501 308.666 33.8221C308.545 33.6941 308.315 33.5789 307.978 33.4765C307.653 33.3613 307.154 33.2333 306.478 33.0925C305.276 32.8621 304.412 32.5357 303.885 32.1133C303.372 31.6909 303.115 31.1085 303.115 30.3661C303.115 29.8029 303.291 29.2973 303.642 28.8493C303.993 28.3885 304.472 28.0365 305.08 27.7933C305.702 27.5373 306.404 27.4093 307.187 27.4093C307.755 27.4093 308.302 27.4797 308.828 27.6205C309.355 27.7485 309.828 27.9405 310.247 28.1965C310.679 28.4525 310.895 28.7917 310.895 29.2141C310.895 29.4701 310.821 29.6877 310.672 29.8669C310.524 30.0333 310.341 30.1165 310.125 30.1165C309.977 30.1165 309.828 30.0909 309.679 30.0397C309.545 29.9757 309.369 29.8861 309.153 29.7709C308.761 29.5789 308.423 29.4381 308.14 29.3485C307.856 29.2461 307.505 29.1949 307.086 29.1949C306.587 29.1949 306.188 29.2909 305.891 29.4829C305.607 29.6749 305.465 29.9373 305.465 30.2701C305.465 30.5901 305.614 30.8333 305.911 30.9997C306.208 31.1661 306.782 31.3325 307.633 31.4989C308.538 31.6781 309.247 31.8829 309.76 32.1133C310.274 32.3437 310.639 32.6317 310.855 32.9773C311.085 33.3229 311.199 33.7645 311.199 34.3021C311.199 35.1725 310.814 35.8701 310.044 36.3949C309.288 36.9197 308.275 37.1821 307.005 37.1821ZM316.94 37.1821C315.468 37.1821 314.279 36.9069 313.374 36.3565C312.942 36.1133 312.726 35.7677 312.726 35.3197C312.726 35.0637 312.8 34.8589 312.949 34.7053C313.098 34.5389 313.28 34.4557 313.496 34.4557C313.726 34.4557 314.043 34.5581 314.448 34.7629C314.881 34.9549 315.272 35.1021 315.623 35.2045C315.988 35.3069 316.447 35.3581 317.001 35.3581C317.568 35.3581 318.007 35.2685 318.318 35.0893C318.642 34.9101 318.804 34.6605 318.804 34.3405C318.804 34.1229 318.737 33.9501 318.601 33.8221C318.48 33.6941 318.25 33.5789 317.912 33.4765C317.588 33.3613 317.089 33.2333 316.413 33.0925C315.211 32.8621 314.347 32.5357 313.82 32.1133C313.307 31.6909 313.05 31.1085 313.05 30.3661C313.05 29.8029 313.226 29.2973 313.577 28.8493C313.928 28.3885 314.407 28.0365 315.015 27.7933C315.637 27.5373 316.339 27.4093 317.122 27.4093C317.69 27.4093 318.237 27.4797 318.763 27.6205C319.29 27.7485 319.763 27.9405 320.182 28.1965C320.614 28.4525 320.83 28.7917 320.83 29.2141C320.83 29.4701 320.756 29.6877 320.607 29.8669C320.459 30.0333 320.276 30.1165 320.06 30.1165C319.912 30.1165 319.763 30.0909 319.614 30.0397C319.48 29.9757 319.304 29.8861 319.088 29.7709C318.696 29.5789 318.358 29.4381 318.074 29.3485C317.791 29.2461 317.44 29.1949 317.021 29.1949C316.522 29.1949 316.123 29.2909 315.826 29.4829C315.542 29.6749 315.4 29.9373 315.4 30.2701C315.4 30.5901 315.549 30.8333 315.846 30.9997C316.143 31.1661 316.717 31.3325 317.568 31.4989C318.473 31.6781 319.182 31.8829 319.695 32.1133C320.209 32.3437 320.574 32.6317 320.789 32.9773C321.02 33.3229 321.134 33.7645 321.134 34.3021C321.134 35.1725 320.749 35.8701 319.979 36.3949C319.223 36.9197 318.21 37.1821 316.94 37.1821Z" fill="white"/>
<path d="M224.313 53.4856H123.01C121.412 53.4856 120.116 54.7136 120.116 56.2285V72.6856C120.116 74.2004 121.412 75.4285 123.01 75.4285H224.313C225.911 75.4285 227.207 74.2004 227.207 72.6856V56.2285C227.207 54.7136 225.911 53.4856 224.313 53.4856Z" fill="#E91E63"/>
<path d="M144.46 63.8923C144.931 64.0166 145.294 64.2433 145.548 64.5725C145.811 64.9016 145.942 65.3039 145.942 65.7793C145.942 66.4376 145.691 66.9533 145.19 67.3263C144.695 67.6993 144.012 67.8859 143.14 67.8859H140.153C139.93 67.8859 139.752 67.8274 139.621 67.7103C139.497 67.5933 139.436 67.4287 139.436 67.2166V60.8202C139.436 60.6082 139.497 60.4436 139.621 60.3265C139.752 60.2095 139.93 60.151 140.153 60.151H143.025C143.873 60.151 144.538 60.3302 145.016 60.6886C145.502 61.0397 145.745 61.5334 145.745 62.1697C145.745 62.5793 145.63 62.9341 145.398 63.234C145.174 63.5338 144.862 63.7533 144.46 63.8923ZM140.894 63.4095H142.781C143.808 63.4095 144.321 63.0475 144.321 62.3233C144.321 61.9576 144.194 61.687 143.939 61.5115C143.685 61.3359 143.299 61.2481 142.781 61.2481H140.894V63.4095ZM142.978 66.7887C143.519 66.7887 143.912 66.6973 144.159 66.5144C144.406 66.3315 144.53 66.0463 144.53 65.6587C144.53 65.271 144.402 64.9821 144.148 64.7919C143.901 64.6018 143.511 64.5067 142.978 64.5067H140.894V66.7887H142.978ZM151.321 67.9846C150.526 67.9846 149.836 67.8237 149.249 67.5019C148.67 67.1801 148.222 66.7193 147.906 66.1195C147.59 65.5197 147.431 64.8175 147.431 64.0129C147.431 63.2084 147.585 62.5098 147.894 61.9174C148.211 61.3176 148.662 60.8568 149.249 60.535C149.836 60.2132 150.526 60.0522 151.321 60.0522C152.116 60.0522 152.803 60.2132 153.382 60.535C153.969 60.8568 154.416 61.3176 154.725 61.9174C155.041 62.5098 155.2 63.2084 155.2 64.0129C155.2 64.8175 155.041 65.5197 154.725 66.1195C154.409 66.7193 153.957 67.1801 153.37 67.5019C152.792 67.8237 152.109 67.9846 151.321 67.9846ZM151.321 66.8545C152.07 66.8545 152.653 66.6095 153.069 66.1195C153.494 65.6294 153.706 64.9272 153.706 64.0129C153.706 63.0987 153.494 62.4001 153.069 61.9174C152.653 61.4273 152.07 61.1823 151.321 61.1823C150.565 61.1823 149.975 61.4273 149.55 61.9174C149.133 62.4001 148.925 63.0987 148.925 64.0129C148.925 64.9272 149.133 65.6294 149.55 66.1195C149.975 66.6095 150.565 66.8545 151.321 66.8545ZM160.691 67.9846C159.896 67.9846 159.205 67.8237 158.619 67.5019C158.04 67.1801 157.592 66.7193 157.276 66.1195C156.959 65.5197 156.801 64.8175 156.801 64.0129C156.801 63.2084 156.955 62.5098 157.264 61.9174C157.58 61.3176 158.032 60.8568 158.619 60.535C159.205 60.2132 159.896 60.0522 160.691 60.0522C161.486 60.0522 162.173 60.2132 162.752 60.535C163.338 60.8568 163.786 61.3176 164.095 61.9174C164.411 62.5098 164.569 63.2084 164.569 64.0129C164.569 64.8175 164.411 65.5197 164.095 66.1195C163.778 66.7193 163.326 67.1801 162.74 67.5019C162.161 67.8237 161.478 67.9846 160.691 67.9846ZM160.691 66.8545C161.439 66.8545 162.022 66.6095 162.439 66.1195C162.863 65.6294 163.076 64.9272 163.076 64.0129C163.076 63.0987 162.863 62.4001 162.439 61.9174C162.022 61.4273 161.439 61.1823 160.691 61.1823C159.934 61.1823 159.344 61.4273 158.92 61.9174C158.503 62.4001 158.294 63.0987 158.294 64.0129C158.294 64.9272 158.503 65.6294 158.92 66.1195C159.344 66.6095 159.934 66.8545 160.691 66.8545ZM172.758 66.8216C172.912 66.9606 172.989 67.1179 172.989 67.2934C172.989 67.4616 172.92 67.6116 172.781 67.7432C172.65 67.8675 172.491 67.9297 172.306 67.9297C172.114 67.9297 171.936 67.8529 171.774 67.6993L167.918 64.2763V67.2385C167.918 67.4506 167.849 67.6225 167.71 67.7542C167.579 67.8859 167.397 67.9517 167.166 67.9517C166.942 67.9517 166.76 67.8859 166.622 67.7542C166.491 67.6225 166.425 67.4506 166.425 67.2385V60.7983C166.425 60.5862 166.491 60.4179 166.622 60.2936C166.76 60.162 166.942 60.0961 167.166 60.0961C167.397 60.0961 167.579 60.162 167.71 60.2936C167.849 60.4179 167.918 60.5862 167.918 60.7983V63.618L171.646 60.3046C171.785 60.1729 171.944 60.1071 172.121 60.1071C172.299 60.1071 172.453 60.1729 172.584 60.3046C172.723 60.4289 172.792 60.5752 172.792 60.7434C172.792 60.9117 172.716 61.0653 172.561 61.2042L169.446 63.9032L172.758 66.8216ZM184.088 60.0961C184.304 60.0961 184.474 60.162 184.598 60.2936C184.729 60.4179 184.795 60.5862 184.795 60.7983V67.2385C184.795 67.4506 184.729 67.6225 184.598 67.7542C184.466 67.8859 184.297 67.9517 184.088 67.9517C183.841 67.9517 183.652 67.8675 183.521 67.6993L179.295 62.4879V67.2385C179.295 67.4506 179.233 67.6225 179.11 67.7542C178.986 67.8859 178.816 67.9517 178.601 67.9517C178.384 67.9517 178.214 67.8859 178.091 67.7542C177.967 67.6225 177.906 67.4506 177.906 67.2385V60.7983C177.906 60.5862 177.971 60.4179 178.103 60.2936C178.234 60.162 178.407 60.0961 178.624 60.0961C178.863 60.0961 179.048 60.1803 179.179 60.3485L183.394 65.538V60.7983C183.394 60.5862 183.455 60.4179 183.579 60.2936C183.71 60.162 183.88 60.0961 184.088 60.0961ZM190.538 67.9846C189.742 67.9846 189.051 67.8237 188.465 67.5019C187.886 67.1801 187.438 66.7193 187.122 66.1195C186.805 65.5197 186.648 64.8175 186.648 64.0129C186.648 63.2084 186.802 62.5098 187.111 61.9174C187.427 61.3176 187.878 60.8568 188.465 60.535C189.051 60.2132 189.742 60.0522 190.538 60.0522C191.332 60.0522 192.02 60.2132 192.598 60.535C193.185 60.8568 193.632 61.3176 193.941 61.9174C194.258 62.5098 194.416 63.2084 194.416 64.0129C194.416 64.8175 194.258 65.5197 193.941 66.1195C193.624 66.7193 193.173 67.1801 192.587 67.5019C192.008 67.8237 191.325 67.9846 190.538 67.9846ZM190.538 66.8545C191.286 66.8545 191.869 66.6095 192.286 66.1195C192.71 65.6294 192.923 64.9272 192.923 64.0129C192.923 63.0987 192.71 62.4001 192.286 61.9174C191.869 61.4273 191.286 61.1823 190.538 61.1823C189.781 61.1823 189.19 61.4273 188.766 61.9174C188.349 62.4001 188.141 63.0987 188.141 64.0129C188.141 64.9272 188.349 65.6294 188.766 66.1195C189.19 66.6095 189.781 66.8545 190.538 66.8545ZM206.302 60.524C206.357 60.3778 206.441 60.268 206.557 60.1949C206.681 60.1217 206.816 60.0852 206.962 60.0852C207.148 60.0852 207.306 60.14 207.437 60.2497C207.576 60.3594 207.645 60.5057 207.645 60.6886C207.645 60.7544 207.627 60.8495 207.588 60.9738L205.098 67.5019C205.037 67.6481 204.933 67.7615 204.786 67.842C204.647 67.9224 204.493 67.9627 204.323 67.9627C204.153 67.9627 203.995 67.9224 203.848 67.842C203.702 67.7615 203.601 67.6481 203.547 67.5019L201.625 62.3343L199.669 67.5019C199.607 67.6481 199.503 67.7615 199.356 67.842C199.217 67.9224 199.063 67.9627 198.893 67.9627C198.724 67.9627 198.565 67.9224 198.418 67.842C198.279 67.7615 198.183 67.6481 198.129 67.5019L195.64 60.9738C195.601 60.8641 195.582 60.769 195.582 60.6886C195.582 60.5057 195.651 60.3594 195.79 60.2497C195.937 60.14 196.107 60.0852 196.3 60.0852C196.454 60.0852 196.593 60.1217 196.716 60.1949C196.84 60.268 196.929 60.3778 196.983 60.524L198.951 65.8891L200.977 60.5569C201.031 60.4107 201.12 60.2973 201.243 60.2168C201.367 60.129 201.502 60.0852 201.648 60.0852C201.795 60.0852 201.931 60.129 202.054 60.2168C202.185 60.2973 202.278 60.4143 202.331 60.5679L204.3 65.9549L206.302 60.524Z" fill="white"/>
<g style="mix-blend-mode:luminosity" opacity="0.6">
<path style="mix-blend-mode:luminosity" opacity="0.6" d="M438.643 13.7145C424.422 13.7861 417.282 36.9644 414.617 48.8787C411.953 60.7931 414.737 85.2343 435.406 81.9923C438.747 81.4684 439.527 81.3607 442.281 80.051C447.182 77.7189 452.984 76.0787 458.226 75.5829C460.376 75.3799 463.094 74.7073 464.533 74.4625C476.069 72.4965 487.842 61.9052 484.277 50.8076C481.601 42.4735 473.759 39.1186 465.905 39.5799C461.593 39.8331 457.002 37.4355 456.082 34.7868C453.084 26.1596 449.635 13.6593 438.643 13.7145Z" fill="url(#paint1_linear)"/>
<g style="mix-blend-mode:luminosity" opacity="0.1">
<path d="M449.082 21.2342L431.236 28.1343C430.65 28.3609 430.65 29.1476 431.236 29.3744L449.082 36.2745C449.253 36.3407 449.444 36.3407 449.616 36.2745L467.462 29.3744C468.048 29.1478 468.048 28.361 467.462 28.1343L449.616 21.2342C449.444 21.168 449.253 21.168 449.082 21.2342Z" fill="#590BB2"/>
</g>
<g style="mix-blend-mode:luminosity" opacity="0.1">
<path d="M481.287 67.453V70.8294C481.287 71.5686 480.656 72.1686 479.874 72.1686H418.823C418.042 72.1686 417.41 71.5686 417.41 70.8294V67.453C417.41 66.7138 418.042 66.1138 418.823 66.1138H438.045C438.25 66.1138 438.445 66.1982 438.579 66.3452L440.399 68.337H458.299L460.119 66.3452C460.252 66.1983 460.448 66.1138 460.653 66.1138H479.874C480.656 66.1138 481.287 66.7138 481.287 67.453Z" fill="#590BB2"/>
</g>
<g style="mix-blend-mode:luminosity" opacity="0.6">
<path d="M477.055 65.6699H421.643V32.2233C421.643 30.9504 422.732 29.9185 424.075 29.9185H474.623C475.966 29.9185 477.055 30.9504 477.055 32.2233V65.6699Z" fill="#C182F9"/>
</g>
<g style="mix-blend-mode:luminosity" opacity="0.6">
<path d="M481.287 63.8371V67.2134C481.287 67.9527 480.656 68.5527 479.874 68.5527H418.823C418.042 68.5527 417.41 67.9527 417.41 67.2134V63.8371C417.41 63.0978 418.042 62.4978 418.823 62.4978H438.045C438.25 62.4978 438.445 62.5821 438.579 62.7292L440.399 64.721H458.299L460.119 62.7292C460.252 62.5823 460.448 62.4978 460.653 62.4978H479.874C480.656 62.4978 481.287 63.0978 481.287 63.8371Z" fill="#E2CCFF"/>
</g>
<g style="mix-blend-mode:luminosity" opacity="0.6">
<path d="M473.067 59.2871H425.63C425.24 59.2871 424.924 58.9872 424.924 58.6174V33.9167C424.924 33.5469 425.24 33.2471 425.63 33.2471H473.067C473.457 33.2471 473.773 33.5469 473.773 33.9167V58.6174C473.773 58.9872 473.457 59.2871 473.067 59.2871Z" fill="white"/>
</g>
<g style="mix-blend-mode:luminosity" opacity="0.6">
<path d="M473.773 41.9733V33.9167C473.773 33.5469 473.457 33.2471 473.067 33.2471H425.63C425.24 33.2471 424.924 33.5469 424.924 33.9167V41.9733H473.773Z" fill="#FFD5B8"/>
</g>
<g style="mix-blend-mode:luminosity" opacity="0.6">
<path d="M469.776 48.2558H444.97C444.58 48.2558 444.264 47.9559 444.264 47.5861C444.264 47.2164 444.58 46.9165 444.97 46.9165H469.776C470.166 46.9165 470.483 47.2164 470.483 47.5861C470.483 47.9559 470.166 48.2558 469.776 48.2558Z" fill="#FFA052"/>
</g>
<g style="mix-blend-mode:luminosity" opacity="0.6">
<path d="M469.776 50.5998H444.97C444.58 50.5998 444.264 50.3 444.264 49.9302C444.264 49.5604 444.58 49.2605 444.97 49.2605H469.776C470.166 49.2605 470.483 49.5604 470.483 49.9302C470.483 50.3 470.166 50.5998 469.776 50.5998Z" fill="#FFA052"/>
</g>
<g style="mix-blend-mode:luminosity" opacity="0.6">
<path d="M469.776 52.9438H444.97C444.58 52.9438 444.264 52.6439 444.264 52.2742C444.264 51.9044 444.58 51.6045 444.97 51.6045H469.776C470.166 51.6045 470.483 51.9044 470.483 52.2742C470.483 52.6439 470.166 52.9438 469.776 52.9438Z" fill="#FFA052"/>
</g>
<g style="mix-blend-mode:luminosity" opacity="0.6">
<path d="M469.776 53.9487C470.166 53.9487 470.483 54.2486 470.483 54.6184C470.483 54.9881 470.166 55.288 469.776 55.288H444.97C444.58 55.288 444.264 54.9881 444.264 54.6184C444.264 54.2486 444.58 53.9487 444.97 53.9487H469.776Z" fill="#FFA052"/>
</g>
<g style="mix-blend-mode:luminosity" opacity="0.6">
<path d="M435.92 48.2558H428.921C428.531 48.2558 428.215 47.9559 428.215 47.5861C428.215 47.2164 428.531 46.9165 428.921 46.9165H435.92C436.31 46.9165 436.627 47.2164 436.627 47.5861C436.627 47.9559 436.31 48.2558 435.92 48.2558Z" fill="#C182F9"/>
</g>
<g style="mix-blend-mode:luminosity" opacity="0.6">
<path d="M439.736 50.5998H428.921C428.531 50.5998 428.215 50.3 428.215 49.9302C428.215 49.5604 428.531 49.2605 428.921 49.2605H439.736C440.126 49.2605 440.442 49.5604 440.442 49.9302C440.442 50.3 440.126 50.5998 439.736 50.5998Z" fill="#C182F9"/>
</g>
<g style="mix-blend-mode:luminosity" opacity="0.6">
<path d="M439.736 52.9436H428.921C428.531 52.9436 428.215 52.6437 428.215 52.2739C428.215 51.9042 428.531 51.6042 428.921 51.6042H439.736C440.126 51.6042 440.442 51.9042 440.442 52.2739C440.442 52.6437 440.126 52.9436 439.736 52.9436Z" fill="#C182F9"/>
</g>
<g style="mix-blend-mode:luminosity" opacity="0.6">
<path d="M439.736 55.2878H428.921C428.531 55.2878 428.215 54.9879 428.215 54.6182C428.215 54.2483 428.531 53.9485 428.921 53.9485H439.736C440.126 53.9485 440.442 54.2483 440.442 54.6182C440.442 54.9879 440.126 55.2878 439.736 55.2878Z" fill="#C182F9"/>
</g>
<g style="mix-blend-mode:luminosity" opacity="0.6">
<path d="M429.14 45.8378C429.53 45.8378 429.847 45.538 429.847 45.1682C429.847 44.7983 429.53 44.4985 429.14 44.4985C428.75 44.4985 428.433 44.7983 428.433 45.1682C428.433 45.538 428.75 45.8378 429.14 45.8378Z" fill="#FFA052"/>
</g>
<g style="mix-blend-mode:luminosity" opacity="0.6">
<path d="M431.436 45.8378C431.827 45.8378 432.143 45.538 432.143 45.1682C432.143 44.7983 431.827 44.4985 431.436 44.4985C431.046 44.4985 430.73 44.7983 430.73 45.1682C430.73 45.538 431.046 45.8378 431.436 45.8378Z" fill="#FFA052"/>
</g>
<g style="mix-blend-mode:luminosity" opacity="0.6">
<path d="M427.373 22.1991H426.949V21.7974C426.949 21.4275 426.632 21.1277 426.242 21.1277C425.852 21.1277 425.535 21.4275 425.535 21.7974V22.1991H425.111C424.721 22.1991 424.404 22.499 424.404 22.8688C424.404 23.2386 424.721 23.5384 425.111 23.5384H425.535V23.9402C425.535 24.31 425.852 24.6099 426.242 24.6099C426.632 24.6099 426.949 24.31 426.949 23.9402V23.5384H427.373C427.763 23.5384 428.079 23.2386 428.079 22.8688C428.079 22.499 427.763 22.1991 427.373 22.1991Z" fill="#FFA052"/>
</g>
<g style="mix-blend-mode:luminosity" opacity="0.6">
<path d="M437.242 75.5225H436.818V75.1206C436.818 74.751 436.501 74.4507 436.111 74.4507C435.721 74.4507 435.404 74.751 435.404 75.1206V75.5225H434.98C434.59 75.5225 434.274 75.8221 434.274 76.1917C434.274 76.562 434.59 76.8617 434.98 76.8617H435.404V77.2635C435.404 77.6331 435.721 77.9327 436.111 77.9327C436.501 77.9327 436.818 77.6331 436.818 77.2635V76.8617H437.242C437.632 76.8617 437.949 76.562 437.949 76.1917C437.949 75.8221 437.632 75.5225 437.242 75.5225Z" fill="#FFA052"/>
</g>
<g style="mix-blend-mode:luminosity" opacity="0.6">
<path d="M474.198 24.6051H473.774V24.2034C473.774 23.8336 473.457 23.5337 473.067 23.5337C472.677 23.5337 472.36 23.8336 472.36 24.2034V24.6051H471.936C471.546 24.6051 471.23 24.905 471.23 25.2748C471.23 25.6445 471.546 25.9444 471.936 25.9444H472.36V26.3462C472.36 26.716 472.677 27.0159 473.067 27.0159C473.457 27.0159 473.774 26.716 473.774 26.3462V25.9444H474.198C474.588 25.9444 474.904 25.6445 474.904 25.2748C474.904 24.905 474.588 24.6051 474.198 24.6051Z" fill="#C182F9"/>
</g>
<g style="mix-blend-mode:luminosity" opacity="0.6">
<path d="M433.551 20.2323C433.37 20.2323 433.19 20.167 433.051 20.0363L432.42 19.4384L431.789 20.0363C431.514 20.2977 431.067 20.2977 430.79 20.0363C430.514 19.7747 430.514 19.3507 430.79 19.0893L431.921 18.0178C432.197 17.7564 432.644 17.7564 432.92 18.0178L434.051 19.0893C434.327 19.3509 434.327 19.7748 434.051 20.0363C433.913 20.1669 433.732 20.2323 433.551 20.2323Z" fill="#FDD250"/>
</g>
<g style="mix-blend-mode:luminosity" opacity="0.6">
<path d="M445.713 78.4882C445.532 78.4882 445.351 78.4231 445.213 78.2928L444.582 77.6949L443.951 78.2928C443.675 78.5541 443.228 78.5541 442.951 78.2928C442.676 78.0309 442.676 77.6071 442.951 77.3452L444.082 76.2741C444.358 76.0128 444.805 76.0128 445.082 76.2741L446.212 77.3452C446.488 77.6071 446.488 78.0309 446.212 78.2928C446.074 78.4231 445.894 78.4882 445.713 78.4882Z" fill="#C182F9"/>
</g>
<g style="mix-blend-mode:luminosity" opacity="0.6">
<path d="M461.973 26.4058V39.1678C461.973 39.4397 461.8 39.6848 461.533 39.7879L449.616 44.3964C449.445 44.462 449.253 44.462 449.082 44.3964L437.165 39.7879C436.898 39.6848 436.724 39.4397 436.724 39.1678V26.4058H461.973Z" fill="#B557FF"/>
</g>
<g style="mix-blend-mode:luminosity" opacity="0.6">
<path d="M461.973 26.4058V30.0499L450.418 34.5178C450.077 34.6504 449.716 34.7174 449.349 34.7174C448.981 34.7174 448.621 34.6504 448.28 34.5178L436.724 30.0499V26.4058H461.973Z" fill="#9526DD"/>
</g>
<g style="mix-blend-mode:luminosity" opacity="0.6">
<path d="M449.082 17.618L431.236 24.5181C430.65 24.7448 430.65 25.5315 431.236 25.7582L449.082 32.6583C449.253 32.7245 449.444 32.7245 449.616 32.6583L467.462 25.7582C468.048 25.5315 468.048 24.7449 467.462 24.5181L449.616 17.618C449.444 17.5518 449.253 17.5518 449.082 17.618Z" fill="#C182F9"/>
</g>
<g style="mix-blend-mode:luminosity" opacity="0.6">
<path d="M459.745 56.17H456.195C455.804 56.17 455.488 55.8702 455.488 55.5004V51.6126C455.488 50.3136 456.599 49.2605 457.97 49.2605C459.341 49.2605 460.452 50.3136 460.452 51.6126V55.5004C460.452 55.8702 460.135 56.17 459.745 56.17Z" fill="#FFC136"/>
</g>
<g style="mix-blend-mode:luminosity" opacity="0.6">
<path d="M457.97 50.3749C459.474 50.3749 460.693 49.2196 460.693 47.7943C460.693 46.369 459.474 45.2136 457.97 45.2136C456.466 45.2136 455.247 46.369 455.247 47.7943C455.247 49.2196 456.466 50.3749 457.97 50.3749Z" fill="#FFE783"/>
</g>
<g style="mix-blend-mode:luminosity" opacity="0.6">
<path d="M479.874 61.8284H477.761V32.2235C477.761 30.5832 476.353 29.249 474.623 29.249H462.679V28.3304L467.729 26.3782C468.263 26.1716 468.608 25.6849 468.608 25.1382C468.608 24.5914 468.263 24.1047 467.729 23.8981L449.883 16.9979C449.538 16.8646 449.159 16.8646 448.815 16.9979L430.969 23.8981C430.435 24.1045 430.09 24.5914 430.09 25.1382C430.09 25.6849 430.435 26.1716 430.969 26.3782L436.018 28.3304V39.1678C436.018 39.7146 436.363 40.2013 436.898 40.4078L448.815 45.0156C448.987 45.0823 449.168 45.1156 449.349 45.1156C449.53 45.1156 449.711 45.0822 449.883 45.0156L457.263 42.162V44.6137C455.71 44.9232 454.54 46.2316 454.54 47.7942C454.54 48.5938 454.847 49.3263 455.354 49.893C454.995 50.3817 454.781 50.9732 454.781 51.6124V55.5002C454.781 56.2387 455.415 56.8395 456.195 56.8395H459.745C460.524 56.8395 461.158 56.2387 461.158 55.5002V51.6124C461.158 50.9729 460.946 50.3796 460.588 49.8909C461.093 49.3245 461.399 48.5927 461.399 47.7942C461.399 46.2316 460.229 44.9232 458.676 44.6137V41.6156L461.8 40.4078C462.334 40.2013 462.679 39.7145 462.679 39.1678V30.5883H474.623C475.574 30.5883 476.348 31.3218 476.348 32.2235V62.498C476.348 62.8678 476.664 63.1676 477.055 63.1676H479.874C480.263 63.1676 480.58 63.468 480.58 63.8373V67.2136C480.58 67.5829 480.263 67.8833 479.874 67.8833H418.823C418.434 67.8833 418.117 67.5829 418.117 67.2136V63.8373C418.117 63.468 418.434 63.1676 418.823 63.1676H438.045L439.865 65.1596C439.999 65.3065 440.193 65.391 440.399 65.391H458.299C458.504 65.391 458.699 65.3066 458.833 65.1596L460.653 63.1676H472.73C473.121 63.1676 473.437 62.8678 473.437 62.498C473.437 62.1282 473.121 61.8284 472.73 61.8284H460.653C460.242 61.8284 459.852 61.9971 459.584 62.2911L457.976 64.0516H440.721L439.113 62.2911C438.844 61.997 438.455 61.8284 438.045 61.8284H422.35V32.2235C422.35 31.3218 423.123 30.5883 424.075 30.5883H432.399C432.789 30.5883 433.106 30.2884 433.106 29.9186C433.106 29.5489 432.789 29.249 432.399 29.249H424.075C422.344 29.249 420.936 30.5834 420.936 32.2235V61.8284H418.823C417.655 61.8284 416.704 62.7296 416.704 63.8373V67.2136C416.704 68.3213 417.655 69.2229 418.823 69.2229H479.874C481.043 69.2229 481.993 68.3213 481.993 67.2136V63.8373C481.993 62.7296 481.043 61.8284 479.874 61.8284ZM458.912 55.5002V53.4913C458.912 53.1215 458.596 52.8216 458.205 52.8216C457.815 52.8216 457.499 53.1215 457.499 53.4913V55.5002H456.195V51.6124C456.195 51.2828 456.297 50.9767 456.471 50.7171C456.924 50.9266 457.433 51.0445 457.97 51.0445C458.507 51.0445 459.015 50.9267 459.468 50.7174C459.642 50.9768 459.745 51.2828 459.745 51.6126L459.746 55.5002H458.912ZM459.986 47.7942C459.986 48.848 459.082 49.7053 457.97 49.7053C456.857 49.7053 455.953 48.848 455.953 47.7942C455.953 46.7405 456.857 45.8832 457.97 45.8832C459.082 45.8832 459.986 46.7405 459.986 47.7942ZM449.349 18.2378L467.195 25.138L457.679 28.817L447.724 24.6618C447.367 24.5127 446.95 24.6661 446.793 25.0048C446.635 25.3433 446.797 25.7385 447.155 25.8875L455.86 29.5209L449.349 32.0382L431.503 25.138L449.349 18.2378ZM449.349 43.7756L437.431 39.1676V28.8767L448.815 33.2782C448.987 33.3448 449.168 33.3781 449.349 33.3781C449.53 33.3781 449.711 33.3447 449.883 33.2782L457.263 30.4246V40.7156L449.349 43.7756ZM458.677 40.1692V29.8782L461.266 28.8768V39.1678L458.677 40.1692Z" fill="#590BB2"/>
</g>
</g>
<path d="M66.2018 21.1227C65.9929 21.1227 65.7845 21.1245 65.5766 21.1281C60.3975 21.2172 55.4067 19.4329 51.3808 16.3441C47.8109 13.6051 43.2553 11.9744 38.2966 12.0051C26.9812 12.0751 17.6556 21.1283 17.8428 31.85C17.8932 34.7371 18.6054 37.4715 19.8417 39.923C21.9482 44.1001 21.4939 49.0695 18.5669 52.7761C17.358 54.307 16.3687 56.0327 15.6576 57.9261C11.8683 68.016 17.466 79.2314 28.1048 82.8438C38.939 86.5226 50.82 81.0849 54.5392 70.8019C54.8148 70.0401 55.0376 69.2735 55.2098 68.505C56.3029 63.6263 60.7939 60.1336 66.0569 60.1545C66.1052 60.1546 66.1536 60.1548 66.202 60.1548C80.7923 60.1548 92.6194 51.4172 92.6194 40.6389C92.6194 29.8605 80.7916 21.1227 66.2018 21.1227Z" fill="url(#paint2_linear)"/>
<path opacity="0.1" d="M78.8828 21.5784H28.2087C27.3657 21.5784 26.6823 22.226 26.6823 23.0248V29.9677C26.6823 30.7665 27.3657 31.4141 28.2087 31.4141H64.7639L66.048 34.9927C66.454 36.1241 68.1425 36.1241 68.5486 34.9927L69.8326 31.4141H78.8828C79.7258 31.4141 80.4088 30.7665 80.4088 29.9677V23.0248C80.4088 22.226 79.7258 21.5784 78.8828 21.5784Z" fill="#590BB2"/>
<path opacity="0.1" d="M81.178 37.7791H25.9131C24.6478 37.7791 23.6236 38.7496 23.6236 39.9487V69.4469C23.6236 70.6462 24.6478 71.6165 25.9131 71.6165H45.1722V75.0156C45.1722 75.5971 45.8591 75.9399 46.3658 75.6135L48.3973 74.3011L50.4289 75.6135C50.9356 75.9399 51.6224 75.5971 51.6224 75.0156V71.6165H81.178C82.4436 71.6165 83.4674 70.6462 83.4674 69.4469V39.9487C83.4674 38.7496 82.4436 37.7791 81.178 37.7791Z" fill="#590BB2"/>
<path d="M83.4674 36.0434V65.5419C83.4674 66.7401 82.4428 67.7116 81.178 67.7116H25.9133C24.6489 67.7116 23.6238 66.7401 23.6238 65.5419V36.0434C23.6238 34.8452 24.6489 33.8738 25.9133 33.8738H81.178C82.4428 33.8738 83.4674 34.8451 83.4674 36.0434Z" fill="#C182F9"/>
<path d="M78.4247 33.8738V64.2749C78.4247 65.0737 77.741 65.7212 76.898 65.7212H55.0719C54.6506 65.7212 54.269 65.5593 53.9928 65.2975C53.7165 65.0357 53.5456 64.6741 53.5456 64.2749C53.5456 65.0732 52.8618 65.7212 52.0192 65.7212H30.1929C29.3499 65.7212 28.6666 65.0737 28.6666 64.2749V33.8738H78.4247Z" fill="#B557FF"/>
<path d="M83.4682 61.0008H23.623V36.043C23.623 34.8447 24.6481 33.8733 25.9125 33.8733H81.1787C82.4428 33.8733 83.4682 34.8447 83.4682 36.043V61.0008Z" fill="#E2CCFF"/>
<path d="M51.6224 62.1978V71.1106C51.6224 71.6921 50.9355 72.0349 50.4288 71.7079L48.3973 70.3961L46.3658 71.7079C45.859 72.0349 45.1721 71.6921 45.1721 71.1106V62.1978H51.6224Z" fill="#FFE783"/>
<path d="M45.1721 62.1978H51.6224V65.7212H45.1721V62.1978Z" fill="#FDD250"/>
<path d="M53.5456 34.338V61.7362C53.5456 62.5347 52.8618 63.1827 52.0192 63.1827H30.1929C29.3504 63.1827 28.6666 62.5347 28.6666 61.7362V32.1684C28.6666 31.3699 29.3504 30.7219 30.1929 30.7219H49.7298C51.8376 30.7219 53.5456 32.3405 53.5456 34.338Z" fill="#FF6666"/>
<path d="M53.5456 36.2838V34.338C53.5456 32.3405 51.8376 30.7219 49.7298 30.7219H30.1929C29.3504 30.7219 28.6666 31.3699 28.6666 32.1684V36.2838H53.5456Z" fill="#FFE783"/>
<path d="M78.4248 32.1689V61.7367C78.4248 62.5352 77.741 63.1832 76.898 63.1832H55.0719C54.2294 63.1832 53.5456 62.5352 53.5456 61.7367V34.3385C53.5456 32.341 55.2536 30.7224 57.3614 30.7224H76.898C77.741 30.7224 78.4248 31.3704 78.4248 32.1689Z" fill="white"/>
<path d="M53.5456 50.8445V61.7362C53.5456 62.5351 54.2289 63.1827 55.0719 63.1827H76.898C77.741 63.1827 78.4248 62.5351 78.4248 61.7362V50.8445H53.5456Z" fill="#EFEBFF"/>
<path d="M78.8828 17.6729H28.2087C27.3657 17.6729 26.6823 18.3204 26.6823 19.1193V26.0622C26.6823 26.861 27.3657 27.5086 28.2087 27.5086H64.7639L66.048 31.0872C66.454 32.2186 68.1425 32.2186 68.5486 31.0872L69.8326 27.5086H78.8828C79.7258 27.5086 80.4088 26.861 80.4088 26.0622V19.1193C80.4088 18.3204 79.7258 17.6729 78.8828 17.6729Z" fill="white"/>
<path d="M69.375 30.7224L68.5477 33.0251C68.1418 34.1562 66.4537 34.1562 66.0477 33.0251L65.2219 30.7224H69.375Z" fill="#EFEBFF"/>
<path d="M37.4429 17.6729H28.2087C27.3657 17.6729 26.6823 18.3204 26.6823 19.1193V26.0622C26.6823 26.861 27.3657 27.5086 28.2087 27.5086H37.4429V17.6729Z" fill="#CCA1FF"/>
<path d="M39.307 44.4901V48.0074C39.307 48.3424 39.6906 48.551 39.9958 48.3821L43.1744 46.6234C43.4771 46.456 43.4771 46.0414 43.1744 45.8739L39.9958 44.1152C39.6904 43.9464 39.307 44.1551 39.307 44.4901Z" fill="white"/>
<path d="M32.1826 34.3798C32.5439 34.3798 32.8368 34.1022 32.8368 33.7598C32.8368 33.4175 32.5439 33.1399 32.1826 33.1399C31.8213 33.1399 31.5284 33.4175 31.5284 33.7598C31.5284 34.1022 31.8213 34.3798 32.1826 34.3798Z" fill="#FF6666"/>
<path d="M34.2694 34.3798C34.6307 34.3798 34.9236 34.1022 34.9236 33.7598C34.9236 33.4175 34.6307 33.1399 34.2694 33.1399C33.9081 33.1399 33.6152 33.4175 33.6152 33.7598C33.6152 34.1022 33.9081 34.3798 34.2694 34.3798Z" fill="#FF6666"/>
<path d="M36.3563 34.3798C36.7176 34.3798 37.0105 34.1022 37.0105 33.7598C37.0105 33.4175 36.7176 33.1399 36.3563 33.1399C35.995 33.1399 35.7022 33.4175 35.7022 33.7598C35.7022 34.1022 35.995 34.3798 36.3563 34.3798Z" fill="#FF6666"/>
<path d="M40.1946 56.6547H32.6362C32.2147 56.6547 31.8731 56.3308 31.8731 55.9315C31.8731 55.5321 32.2147 55.2083 32.6362 55.2083H40.1946C40.6161 55.2083 40.9577 55.5321 40.9577 55.9315C40.9577 56.3308 40.6161 56.6547 40.1946 56.6547Z" fill="#FFBE92"/>
<path d="M44.3156 59.1864H32.6362C32.2147 59.1864 31.8731 58.8626 31.8731 58.4632C31.8731 58.0639 32.2147 57.74 32.6362 57.74H44.3156C44.7372 57.74 45.0788 58.0639 45.0788 58.4632C45.0788 58.8626 44.7372 59.1864 44.3156 59.1864Z" fill="#FFBE92"/>
<path d="M32.8724 54.0436C33.2939 54.0436 33.6355 53.7198 33.6355 53.3204C33.6355 52.921 33.2939 52.5972 32.8724 52.5972C32.4509 52.5972 32.1092 52.921 32.1092 53.3204C32.1092 53.7198 32.4509 54.0436 32.8724 54.0436Z" fill="#FFBE92"/>
<path d="M35.3526 54.0436C35.7741 54.0436 36.1158 53.7198 36.1158 53.3204C36.1158 52.921 35.7741 52.5972 35.3526 52.5972C34.9311 52.5972 34.5894 52.921 34.5894 53.3204C34.5894 53.7198 34.9311 54.0436 35.3526 54.0436Z" fill="#FFBE92"/>
<path d="M65.9851 23.8259H41.8691C41.4477 23.8259 41.1059 23.5021 41.1059 23.1027V21.5728C41.1059 21.1735 41.4477 20.8496 41.8691 20.8496H65.9851C66.4065 20.8496 66.7483 21.1735 66.7483 21.5728V23.1027C66.7483 23.5021 66.4065 23.8259 65.9851 23.8259Z" fill="#E2CCFF"/>
<path d="M81.1787 33.15H79.1874V32.1684C79.1874 30.9722 78.1606 29.9988 76.898 29.9988H69.7451L70.3792 28.2319H78.8828C80.1447 28.2319 81.1722 27.2586 81.1722 26.0622V19.1194C81.1722 17.923 80.1447 16.9497 78.8828 16.9497H28.2087C26.9462 16.9497 25.9192 17.923 25.9192 19.1194V26.0622C25.9192 27.2586 26.9462 28.2319 28.2087 28.2319H42.5103C42.9317 28.2319 43.2734 27.908 43.2734 27.5087C43.2734 27.1093 42.9317 26.7855 42.5103 26.7855H28.2087C27.7878 26.7855 27.4455 26.461 27.4455 26.0622V19.1194C27.4455 18.7206 27.7878 18.3962 28.2087 18.3962H78.8828C79.3032 18.3962 79.6454 18.7206 79.6454 19.1194V26.0622C79.6454 26.461 79.3032 26.7855 78.8828 26.7855H69.8326C69.5058 26.7855 69.2153 26.9826 69.1102 27.2758L67.8261 30.8544C67.7068 31.1868 67.3919 31.2127 67.2983 31.2127H67.2982C67.2046 31.2127 66.8897 31.1868 66.7705 30.8544L65.4865 27.2758C65.3814 26.9826 65.0907 26.7855 64.764 26.7855H47.1808C46.7594 26.7855 46.4176 27.1093 46.4176 27.5087C46.4176 27.908 46.7594 28.2319 47.1808 28.2319H64.2173L64.8514 29.9988H57.3613C55.77 29.9988 54.3664 30.7725 53.5454 31.9433C52.7244 30.7725 51.3208 29.999 49.7296 29.999H30.1929C28.9305 29.999 27.9034 30.9723 27.9034 32.1686V33.1502H25.9124C24.2292 33.1502 22.8598 34.4479 22.8598 36.043V65.5421C22.8598 67.1372 24.2292 68.4349 25.9124 68.4349H44.4095V71.1104C44.4095 71.648 44.721 72.1376 45.2223 72.3893C45.7239 72.6403 46.3264 72.6087 46.7951 72.3056L48.3975 71.2716L49.9998 72.3056C50.2585 72.4729 50.558 72.5573 50.8588 72.5573C51.103 72.5573 51.348 72.5017 51.5726 72.3893C52.0741 72.1376 52.3854 71.648 52.3854 71.1104V68.4349H81.1787C82.8618 68.4349 84.2315 67.1372 84.2315 65.5421V36.0429C84.2315 34.4479 82.8618 33.15 81.1787 33.15ZM29.4297 32.1686C29.4297 31.7698 29.7721 31.4454 30.1929 31.4454H49.7296C51.4129 31.4454 52.7823 32.7431 52.7823 34.3383V61.7362C52.7823 62.135 52.4399 62.4595 52.0191 62.4595H30.1929C29.7721 62.4595 29.4297 62.135 29.4297 61.7362V32.1686ZM25.9124 66.9885C25.0708 66.9885 24.3862 66.3396 24.3862 65.5421V36.0429C24.3862 35.2453 25.0708 34.5964 25.9124 34.5964H27.9034V61.7361C27.9034 62.9324 28.9305 63.9057 30.1929 63.9057H44.4095V66.9883H25.9124V66.9885ZM50.859 71.1104L48.827 69.7987C48.5678 69.6313 48.2268 69.6313 47.9676 69.7987L45.9357 71.1104V63.9058H50.8595L50.8629 71.1125C50.8631 71.1125 50.8617 71.1118 50.859 71.1104ZM82.7048 65.5421C82.7048 66.3396 82.0202 66.9885 81.1787 66.9885H52.3853V63.8755C52.8271 63.8076 53.2263 63.6205 53.5456 63.3488C53.9511 63.694 54.4852 63.906 55.0721 63.906H76.898C78.1606 63.906 79.1874 62.9327 79.1874 61.7364V38.2998C79.1874 37.9004 78.8459 37.5765 78.4247 37.5765C78.0029 37.5765 77.6614 37.9004 77.6614 38.2998V61.7361C77.6614 62.1348 77.3191 62.4593 76.898 62.4593H55.0719C54.6511 62.4593 54.3087 62.1348 54.3087 61.7361V34.3381C54.3087 32.743 55.6781 31.4452 57.3613 31.4452H65.3761C65.6997 32.1867 66.4391 32.6589 67.2982 32.6591H67.2983C68.1574 32.6591 68.8969 32.1867 69.2204 31.4452H76.898C77.3191 31.4452 77.6614 31.7697 77.6614 32.1684V33.8737C77.6614 34.2204 77.9211 34.518 78.28 34.5837C78.335 34.5937 78.39 34.5976 78.4443 34.5966H81.1787C82.0202 34.5966 82.7048 35.2455 82.7048 36.043V65.5421Z" fill="#590BB2"/>
<path d="M30.0717 24.7521C30.2208 24.8932 30.416 24.9638 30.6114 24.9638C30.8067 24.9638 31.002 24.8932 31.1511 24.7521L32.1702 23.7863C32.4486 23.9042 32.7475 23.9652 33.0471 23.9652C33.5968 23.9652 34.1462 23.7669 34.5646 23.3705C35.4013 22.5777 35.4013 21.2874 34.5646 20.4945C33.7279 19.7017 32.3665 19.7017 31.5296 20.4945C30.8832 21.1071 30.7384 22.0158 31.091 22.7635L30.0719 23.7293C29.7736 24.0118 29.7736 24.4697 30.0717 24.7521ZM32.6088 21.5174C32.7296 21.4029 32.8882 21.3456 33.047 21.3456C33.2057 21.3456 33.3643 21.4029 33.4852 21.5174C33.7268 21.7464 33.7268 22.1188 33.4852 22.3478C33.2436 22.5768 32.8505 22.5768 32.6089 22.3478C32.3673 22.1188 32.3672 21.7464 32.6088 21.5174Z" fill="#590BB2"/>
<path d="M66.1543 34.3293C61.8291 34.3293 58.3101 37.664 58.3101 41.7628C58.3101 45.8618 61.8291 49.1963 66.1543 49.1963C70.4797 49.1963 73.9986 45.8618 73.9986 41.7628C73.9986 37.664 70.4797 34.3293 66.1543 34.3293ZM72.4718 41.7628C72.4718 42.657 72.2627 43.5052 71.8903 44.2679C71.3166 43.99 70.6422 43.7589 69.9012 43.5798C69.9768 42.9805 70.016 42.3686 70.016 41.7627C70.016 41.1571 69.9769 40.5454 69.9013 39.9461C70.6422 39.7672 71.3162 39.5359 71.8905 39.2576C72.2627 40.0206 72.4718 40.8688 72.4718 41.7628ZM66.1543 47.7499C65.6706 47.7499 65.0989 47.1628 64.6625 46.2179C64.4575 45.7741 64.2876 45.2727 64.1549 44.7298C64.7947 44.6469 65.4692 44.6024 66.1545 44.6024C66.8435 44.6024 67.5154 44.6452 68.1507 44.7261C67.6804 46.6296 66.8142 47.7499 66.1543 47.7499ZM66.1543 43.1561C65.3813 43.1561 64.6244 43.2069 63.9043 43.3023C63.848 42.8059 63.819 42.2898 63.819 41.7628C63.819 41.2191 63.8502 40.7054 63.9055 40.2235C64.6262 40.3192 65.3831 40.3697 66.1543 40.3697C66.9271 40.3697 67.6839 40.3189 68.4043 40.2234C68.4606 40.7198 68.4897 41.2359 68.4897 41.7628C68.4897 42.3065 68.4583 42.8203 68.4031 43.3021C67.6825 43.2067 66.9256 43.1561 66.1543 43.1561ZM59.8366 41.7628C59.8366 40.8687 60.046 40.0205 60.4185 39.2578C60.9922 39.5356 61.6665 39.7668 62.4075 39.9458C62.332 40.5452 62.2928 41.1571 62.2928 41.763C62.2928 42.3686 62.3318 42.9802 62.4074 43.5793C61.6665 43.7583 60.993 43.9899 60.4186 44.2684C60.046 43.5055 59.8366 42.6571 59.8366 41.7628ZM66.1543 35.7758C66.6382 35.7758 67.2097 36.3629 67.646 37.3078C67.851 37.7516 68.0211 38.2529 68.1537 38.7958C67.5138 38.8788 66.8392 38.9232 66.1543 38.9232C65.4654 38.9232 64.7933 38.8806 64.1583 38.7995C64.6284 36.8962 65.4947 35.7758 66.1543 35.7758ZM71.0826 38.0229C70.6645 38.2152 70.1792 38.382 69.6429 38.5172C69.4517 37.7202 69.1878 36.9808 68.854 36.3513C69.7246 36.7429 70.4856 37.3178 71.0826 38.0229ZM63.4546 36.3513C63.1203 36.9818 62.8562 37.7227 62.6648 38.521C62.1302 38.3859 61.6447 38.2191 61.2248 38.0244C61.8221 37.3187 62.5834 36.7431 63.4546 36.3513ZM61.2262 45.5029C61.6442 45.3105 62.1296 45.1438 62.6656 45.0087C62.8569 45.8056 63.1208 46.545 63.4546 47.1745C62.5842 46.7828 61.8233 46.208 61.2262 45.5029ZM68.8541 47.1745C69.1884 46.544 69.4526 45.8031 69.6439 45.0049C70.1784 45.14 70.6639 45.3067 71.0838 45.5014C70.4867 46.2072 69.7252 46.7827 68.8541 47.1745Z" fill="#590BB2"/>
<path d="M75.5868 58.463C75.5868 58.8622 75.2453 59.1862 74.8234 59.1862H57.5336C57.1123 59.1862 56.7704 58.8622 56.7704 58.463C56.7704 58.0637 57.1123 57.7397 57.5336 57.7397H74.8234C75.2453 57.7397 75.5868 58.0637 75.5868 58.463Z" fill="#D6B0FF"/>
<path d="M75.5868 55.9312C75.5868 56.3304 75.2453 56.6544 74.8234 56.6544H57.5336C57.1123 56.6544 56.7704 56.3304 56.7704 55.9312C56.7704 55.532 57.1123 55.208 57.5336 55.208H74.8234C75.2453 55.208 75.5868 55.532 75.5868 55.9312Z" fill="#D6B0FF"/>
<path d="M75.5868 53.3997C75.5868 53.7989 75.2453 54.1229 74.8234 54.1229H57.5336C57.1123 54.1229 56.7704 53.7989 56.7704 53.3997C56.7704 53.0005 57.1123 52.6765 57.5336 52.6765H74.8234C75.2453 52.6765 75.5868 53.0005 75.5868 53.3997Z" fill="#D6B0FF"/>
<path d="M85.9095 23.234C85.7142 23.234 85.5188 23.1635 85.3705 23.0223L84.6889 22.3766L84.0072 23.0223C83.7091 23.3047 83.2258 23.3047 82.9284 23.0223C82.6302 22.7398 82.6302 22.2819 82.9284 21.9995L84.1491 20.8424C84.4472 20.56 84.9305 20.56 85.2279 20.8424L86.4493 21.9995C86.7475 22.282 86.7475 22.74 86.4493 23.0223C86.3003 23.1635 86.1049 23.234 85.9095 23.234Z" fill="#C182F9"/>
<path d="M64.277 74.9999C64.0818 74.9999 63.8862 74.9293 63.7375 74.788L63.0559 74.1428L62.3745 74.788C62.0766 75.0705 61.5931 75.0705 61.2954 74.788C60.9972 74.5055 60.9972 74.0474 61.2954 73.7656L62.5164 72.6081C62.8142 72.3256 63.2977 72.3256 63.5955 72.6081L64.8166 73.7656C65.1146 74.0481 65.1146 74.5055 64.8166 74.788C64.6676 74.9293 64.4722 74.9999 64.277 74.9999Z" fill="#C182F9"/>
<path d="M24.0876 29.1794H23.6297V28.7454C23.6297 28.3461 23.288 28.0222 22.8666 28.0222C22.4451 28.0222 22.1034 28.3461 22.1034 28.7454V29.1794H21.6455C21.2241 29.1794 20.8823 29.5032 20.8823 29.9026C20.8823 30.3019 21.2241 30.6258 21.6455 30.6258H22.1034V31.0597C22.1034 31.4591 22.4451 31.7829 22.8666 31.7829C23.288 31.7829 23.6297 31.4591 23.6297 31.0597V30.6258H24.0876C24.509 30.6258 24.8507 30.3019 24.8507 29.9026C24.8507 29.5032 24.509 29.1794 24.0876 29.1794Z" fill="#FFE052"/>
<path d="M40.5281 75.0169H40.0702V74.5828C40.0702 74.183 39.7284 73.8594 39.307 73.8594C38.8856 73.8594 38.5438 74.183 38.5438 74.5828V75.0169H38.086C37.6645 75.0169 37.3228 75.3405 37.3228 75.7396C37.3228 76.1394 37.6645 76.463 38.086 76.463H38.5438V76.8971C38.5438 77.2962 38.8856 77.6205 39.307 77.6205C39.7284 77.6205 40.0702 77.2962 40.0702 76.8971V76.463H40.5281C40.9495 76.463 41.2912 76.1394 41.2912 75.7396C41.2912 75.3405 40.9495 75.0169 40.5281 75.0169Z" fill="#FDD250"/>
<path d="M46.2999 78.5449H45.842V78.1109C45.842 77.7111 45.5002 77.3875 45.0788 77.3875C44.6574 77.3875 44.3156 77.7111 44.3156 78.1109V78.5449H43.8577C43.4363 78.5449 43.0946 78.8686 43.0946 79.2677C43.0946 79.6675 43.4363 79.9911 43.8577 79.9911H44.3156V80.4252C44.3156 80.8243 44.6574 81.1486 45.0788 81.1486C45.5002 81.1486 45.842 80.8243 45.842 80.4252V79.9911H46.2999C46.7213 79.9911 47.063 79.6675 47.063 79.2677C47.063 78.8686 46.7213 78.5449 46.2999 78.5449Z" fill="#C182F9"/>
<defs>
<linearGradient id="paint0_linear" x1="-1.86264e-06" y1="48" x2="500" y2="48" gradientUnits="userSpaceOnUse">
<stop offset="0.546875" stop-color="#41237E"/>
<stop offset="1" stop-color="#92125F"/>
</linearGradient>
<linearGradient id="paint1_linear" x1="542.096" y1="13.2299" x2="353.117" y2="84.5594" gradientUnits="userSpaceOnUse">
<stop stop-color="#FFA052"/>
<stop offset="1" stop-color="white" stop-opacity="0"/>
</linearGradient>
<linearGradient id="paint2_linear" x1="60.5526" y1="3.01969" x2="45.7126" y2="105.242" gradientUnits="userSpaceOnUse">
<stop stop-color="#EA72BA" stop-opacity="0.8"/>
<stop offset="1" stop-color="#50385F"/>
</linearGradient>
</defs>
</svg>
